G75*
%MOIN*%
%OFA0B0*%
%FSLAX25Y25*%
%IPPOS*%
%LPD*%
%AMOC8*
5,1,8,0,0,1.08239X$1,22.5*
%
%ADD10R,0.02362X0.02362*%
%ADD11R,0.06299X0.05118*%
%ADD12R,0.08661X0.02362*%
%ADD13R,0.05906X0.07874*%
%ADD14R,0.05118X0.06299*%
%ADD15R,0.05906X0.05118*%
%ADD16R,0.02756X0.03543*%
%ADD17R,0.04600X0.06300*%
%ADD18R,0.07087X0.02362*%
%ADD19R,0.03937X0.05512*%
%ADD20R,0.05118X0.05906*%
%ADD21R,0.06299X0.03543*%
%ADD22R,0.03600X0.02100*%
%ADD23R,0.05512X0.03937*%
%ADD24R,0.07874X0.05906*%
%ADD25R,0.04724X0.03150*%
D10*
X0064599Y0048155D03*
X0073260Y0048155D03*
D11*
X0162680Y0150468D03*
X0162680Y0158342D03*
D12*
X0135416Y0158155D03*
X0135416Y0153155D03*
X0135416Y0148155D03*
X0135416Y0143155D03*
X0114943Y0143155D03*
X0114943Y0148155D03*
X0114943Y0153155D03*
X0114943Y0158155D03*
D13*
X0130524Y0174405D03*
X0142335Y0174405D03*
X0197399Y0058155D03*
X0209210Y0058155D03*
D14*
X0080992Y0164405D03*
X0073118Y0164405D03*
X0107493Y0174405D03*
X0115367Y0174405D03*
X0121243Y0165655D03*
X0129117Y0165655D03*
D15*
X0098930Y0165645D03*
X0098930Y0158165D03*
X0195180Y0141270D03*
X0195180Y0133790D03*
X0216430Y0133790D03*
X0216430Y0141270D03*
X0223930Y0150040D03*
X0223930Y0157520D03*
D16*
G36*
X0186147Y0114066D02*
X0188096Y0112117D01*
X0185593Y0109614D01*
X0183644Y0111563D01*
X0186147Y0114066D01*
G37*
G36*
X0189766Y0110447D02*
X0191715Y0108498D01*
X0189212Y0105995D01*
X0187263Y0107944D01*
X0189766Y0110447D01*
G37*
D17*
X0222805Y0086905D03*
X0228805Y0086905D03*
D18*
X0155997Y0109405D03*
X0155997Y0114405D03*
X0155997Y0119405D03*
X0155997Y0124405D03*
X0126863Y0124405D03*
X0126863Y0119405D03*
X0126863Y0114405D03*
X0126863Y0109405D03*
D19*
G36*
X0154063Y0093641D02*
X0151280Y0090858D01*
X0147383Y0094755D01*
X0150166Y0097538D01*
X0154063Y0093641D01*
G37*
G36*
X0162832Y0090161D02*
X0160049Y0087378D01*
X0156152Y0091275D01*
X0158935Y0094058D01*
X0162832Y0090161D01*
G37*
G36*
X0159352Y0098930D02*
X0156569Y0096147D01*
X0152672Y0100044D01*
X0155455Y0102827D01*
X0159352Y0098930D01*
G37*
G36*
X0182527Y0103649D02*
X0185310Y0106432D01*
X0189207Y0102535D01*
X0186424Y0099752D01*
X0182527Y0103649D01*
G37*
G36*
X0186007Y0094880D02*
X0188790Y0097663D01*
X0192687Y0093766D01*
X0189904Y0090983D01*
X0186007Y0094880D01*
G37*
G36*
X0191297Y0100170D02*
X0194080Y0102953D01*
X0197977Y0099056D01*
X0195194Y0096273D01*
X0191297Y0100170D01*
G37*
G36*
X0221290Y0062397D02*
X0218507Y0065180D01*
X0222404Y0069077D01*
X0225187Y0066294D01*
X0221290Y0062397D01*
G37*
G36*
X0226580Y0057108D02*
X0223797Y0059891D01*
X0227694Y0063788D01*
X0230477Y0061005D01*
X0226580Y0057108D01*
G37*
G36*
X0217810Y0053628D02*
X0215027Y0056411D01*
X0218924Y0060308D01*
X0221707Y0057525D01*
X0217810Y0053628D01*
G37*
G36*
X0112547Y0069545D02*
X0115330Y0072328D01*
X0119227Y0068431D01*
X0116444Y0065648D01*
X0112547Y0069545D01*
G37*
G36*
X0103777Y0073024D02*
X0106560Y0075807D01*
X0110457Y0071910D01*
X0107674Y0069127D01*
X0103777Y0073024D01*
G37*
G36*
X0107257Y0064255D02*
X0110040Y0067038D01*
X0113937Y0063141D01*
X0111154Y0060358D01*
X0107257Y0064255D01*
G37*
D20*
G36*
X0129888Y0055788D02*
X0133507Y0059407D01*
X0137682Y0055232D01*
X0134063Y0051613D01*
X0129888Y0055788D01*
G37*
G36*
X0135177Y0061078D02*
X0138796Y0064697D01*
X0142971Y0060522D01*
X0139352Y0056903D01*
X0135177Y0061078D01*
G37*
G36*
X0191921Y0111613D02*
X0188302Y0115232D01*
X0192477Y0119407D01*
X0196096Y0115788D01*
X0191921Y0111613D01*
G37*
G36*
X0186632Y0116903D02*
X0183013Y0120522D01*
X0187188Y0124697D01*
X0190807Y0121078D01*
X0186632Y0116903D01*
G37*
D21*
X0242384Y0153155D03*
X0242384Y0163155D03*
X0267975Y0163155D03*
X0267975Y0153155D03*
X0267975Y0069405D03*
X0267975Y0059405D03*
X0242384Y0059405D03*
X0242384Y0069405D03*
D22*
X0154730Y0054355D03*
X0154730Y0046955D03*
X0143130Y0046955D03*
X0143130Y0050655D03*
X0143130Y0054355D03*
D23*
X0232724Y0167540D03*
X0232724Y0175020D03*
X0241385Y0171280D03*
D24*
X0186430Y0169686D03*
X0186430Y0157875D03*
D25*
X0242778Y0116593D03*
X0242778Y0106593D03*
X0267581Y0106593D03*
X0267581Y0116593D03*
M02*
