G75*
%MOIN*%
%OFA0B0*%
%FSLAX25Y25*%
%IPPOS*%
%LPD*%
%AMOC8*
5,1,8,0,0,1.08239X$1,22.5*
%
%ADD10C,0.00600*%
%ADD11C,0.00400*%
%ADD12C,0.00200*%
%ADD13C,0.00300*%
%ADD14C,0.00500*%
D10*
X0064993Y0045399D02*
X0072867Y0045399D01*
X0070898Y0048155D02*
X0068536Y0046580D01*
X0068536Y0049730D01*
X0070898Y0048155D01*
X0072867Y0050911D02*
X0064993Y0050911D01*
X0145830Y0056355D02*
X0152030Y0056355D01*
X0152030Y0052355D02*
X0152030Y0048955D01*
X0152030Y0044955D02*
X0150130Y0044955D01*
X0147730Y0044955D01*
X0145830Y0044955D01*
X0147730Y0044955D02*
X0147732Y0045024D01*
X0147738Y0045092D01*
X0147748Y0045160D01*
X0147761Y0045227D01*
X0147779Y0045293D01*
X0147800Y0045358D01*
X0147825Y0045422D01*
X0147853Y0045484D01*
X0147885Y0045545D01*
X0147920Y0045604D01*
X0147959Y0045660D01*
X0148001Y0045715D01*
X0148046Y0045766D01*
X0148094Y0045816D01*
X0148144Y0045862D01*
X0148197Y0045905D01*
X0148253Y0045946D01*
X0148310Y0045983D01*
X0148370Y0046016D01*
X0148432Y0046047D01*
X0148495Y0046073D01*
X0148559Y0046096D01*
X0148625Y0046116D01*
X0148692Y0046131D01*
X0148759Y0046143D01*
X0148827Y0046151D01*
X0148896Y0046155D01*
X0148964Y0046155D01*
X0149033Y0046151D01*
X0149101Y0046143D01*
X0149168Y0046131D01*
X0149235Y0046116D01*
X0149301Y0046096D01*
X0149365Y0046073D01*
X0149428Y0046047D01*
X0149490Y0046016D01*
X0149550Y0045983D01*
X0149607Y0045946D01*
X0149663Y0045905D01*
X0149716Y0045862D01*
X0149766Y0045816D01*
X0149814Y0045766D01*
X0149859Y0045715D01*
X0149901Y0045660D01*
X0149940Y0045604D01*
X0149975Y0045545D01*
X0150007Y0045484D01*
X0150035Y0045422D01*
X0150060Y0045358D01*
X0150081Y0045293D01*
X0150099Y0045227D01*
X0150112Y0045160D01*
X0150122Y0045092D01*
X0150128Y0045024D01*
X0150130Y0044955D01*
X0154308Y0087982D02*
X0156437Y0090111D01*
X0154308Y0087982D02*
X0151954Y0090337D01*
X0160029Y0093703D02*
X0162228Y0095902D01*
X0159873Y0098256D01*
X0183131Y0097909D02*
X0185486Y0095554D01*
X0183131Y0097909D02*
X0185330Y0100108D01*
X0188922Y0103699D02*
X0191051Y0105828D01*
X0193406Y0103474D01*
X0219305Y0089905D02*
X0219305Y0083905D01*
X0219307Y0083845D01*
X0219312Y0083784D01*
X0219321Y0083725D01*
X0219334Y0083666D01*
X0219350Y0083607D01*
X0219370Y0083550D01*
X0219393Y0083495D01*
X0219420Y0083440D01*
X0219449Y0083388D01*
X0219482Y0083337D01*
X0219518Y0083288D01*
X0219556Y0083242D01*
X0219598Y0083198D01*
X0219642Y0083156D01*
X0219688Y0083118D01*
X0219737Y0083082D01*
X0219788Y0083049D01*
X0219840Y0083020D01*
X0219895Y0082993D01*
X0219950Y0082970D01*
X0220007Y0082950D01*
X0220066Y0082934D01*
X0220125Y0082921D01*
X0220184Y0082912D01*
X0220245Y0082907D01*
X0220305Y0082905D01*
X0231305Y0082905D01*
X0231365Y0082907D01*
X0231426Y0082912D01*
X0231485Y0082921D01*
X0231544Y0082934D01*
X0231603Y0082950D01*
X0231660Y0082970D01*
X0231715Y0082993D01*
X0231770Y0083020D01*
X0231822Y0083049D01*
X0231873Y0083082D01*
X0231922Y0083118D01*
X0231968Y0083156D01*
X0232012Y0083198D01*
X0232054Y0083242D01*
X0232092Y0083288D01*
X0232128Y0083337D01*
X0232161Y0083388D01*
X0232190Y0083440D01*
X0232217Y0083495D01*
X0232240Y0083550D01*
X0232260Y0083607D01*
X0232276Y0083666D01*
X0232289Y0083725D01*
X0232298Y0083784D01*
X0232303Y0083845D01*
X0232305Y0083905D01*
X0232305Y0089905D01*
X0232303Y0089965D01*
X0232298Y0090026D01*
X0232289Y0090085D01*
X0232276Y0090144D01*
X0232260Y0090203D01*
X0232240Y0090260D01*
X0232217Y0090315D01*
X0232190Y0090370D01*
X0232161Y0090422D01*
X0232128Y0090473D01*
X0232092Y0090522D01*
X0232054Y0090568D01*
X0232012Y0090612D01*
X0231968Y0090654D01*
X0231922Y0090692D01*
X0231873Y0090728D01*
X0231822Y0090761D01*
X0231770Y0090790D01*
X0231715Y0090817D01*
X0231660Y0090840D01*
X0231603Y0090860D01*
X0231544Y0090876D01*
X0231485Y0090889D01*
X0231426Y0090898D01*
X0231365Y0090903D01*
X0231305Y0090905D01*
X0220305Y0090905D01*
X0220245Y0090903D01*
X0220184Y0090898D01*
X0220125Y0090889D01*
X0220066Y0090876D01*
X0220007Y0090860D01*
X0219950Y0090840D01*
X0219895Y0090817D01*
X0219840Y0090790D01*
X0219788Y0090761D01*
X0219737Y0090728D01*
X0219688Y0090692D01*
X0219642Y0090654D01*
X0219598Y0090612D01*
X0219556Y0090568D01*
X0219518Y0090522D01*
X0219482Y0090473D01*
X0219449Y0090422D01*
X0219420Y0090370D01*
X0219393Y0090315D01*
X0219370Y0090260D01*
X0219350Y0090203D01*
X0219334Y0090144D01*
X0219321Y0090085D01*
X0219312Y0090026D01*
X0219307Y0089965D01*
X0219305Y0089905D01*
X0244156Y0103916D02*
X0246794Y0103916D01*
X0250908Y0103916D01*
X0266203Y0103916D01*
X0250908Y0103916D02*
X0250906Y0104006D01*
X0250900Y0104095D01*
X0250890Y0104184D01*
X0250877Y0104273D01*
X0250859Y0104361D01*
X0250838Y0104448D01*
X0250813Y0104535D01*
X0250784Y0104620D01*
X0250751Y0104703D01*
X0250715Y0104785D01*
X0250676Y0104866D01*
X0250632Y0104945D01*
X0250586Y0105021D01*
X0250536Y0105096D01*
X0250483Y0105168D01*
X0250427Y0105238D01*
X0250368Y0105306D01*
X0250306Y0105371D01*
X0250241Y0105433D01*
X0250173Y0105492D01*
X0250103Y0105548D01*
X0250031Y0105601D01*
X0249956Y0105651D01*
X0249880Y0105697D01*
X0249801Y0105741D01*
X0249720Y0105780D01*
X0249638Y0105816D01*
X0249555Y0105849D01*
X0249470Y0105878D01*
X0249383Y0105903D01*
X0249296Y0105924D01*
X0249208Y0105942D01*
X0249119Y0105955D01*
X0249030Y0105965D01*
X0248941Y0105971D01*
X0248851Y0105973D01*
X0248761Y0105971D01*
X0248672Y0105965D01*
X0248583Y0105955D01*
X0248494Y0105942D01*
X0248406Y0105924D01*
X0248319Y0105903D01*
X0248232Y0105878D01*
X0248147Y0105849D01*
X0248064Y0105816D01*
X0247982Y0105780D01*
X0247901Y0105741D01*
X0247823Y0105697D01*
X0247746Y0105651D01*
X0247671Y0105601D01*
X0247599Y0105548D01*
X0247529Y0105492D01*
X0247461Y0105433D01*
X0247396Y0105371D01*
X0247334Y0105306D01*
X0247275Y0105238D01*
X0247219Y0105168D01*
X0247166Y0105096D01*
X0247116Y0105021D01*
X0247070Y0104945D01*
X0247026Y0104866D01*
X0246987Y0104785D01*
X0246951Y0104703D01*
X0246918Y0104620D01*
X0246889Y0104535D01*
X0246864Y0104448D01*
X0246843Y0104361D01*
X0246825Y0104273D01*
X0246812Y0104184D01*
X0246802Y0104095D01*
X0246796Y0104006D01*
X0246794Y0103916D01*
X0244156Y0119270D02*
X0266203Y0119270D01*
X0266203Y0150478D02*
X0250908Y0150478D01*
X0246794Y0150478D01*
X0244156Y0150478D01*
X0246794Y0150478D02*
X0246796Y0150568D01*
X0246802Y0150657D01*
X0246812Y0150746D01*
X0246825Y0150835D01*
X0246843Y0150923D01*
X0246864Y0151010D01*
X0246889Y0151097D01*
X0246918Y0151182D01*
X0246951Y0151265D01*
X0246987Y0151347D01*
X0247026Y0151428D01*
X0247070Y0151507D01*
X0247116Y0151583D01*
X0247166Y0151658D01*
X0247219Y0151730D01*
X0247275Y0151800D01*
X0247334Y0151868D01*
X0247396Y0151933D01*
X0247461Y0151995D01*
X0247529Y0152054D01*
X0247599Y0152110D01*
X0247671Y0152163D01*
X0247746Y0152213D01*
X0247823Y0152259D01*
X0247901Y0152303D01*
X0247982Y0152342D01*
X0248064Y0152378D01*
X0248147Y0152411D01*
X0248232Y0152440D01*
X0248319Y0152465D01*
X0248406Y0152486D01*
X0248494Y0152504D01*
X0248583Y0152517D01*
X0248672Y0152527D01*
X0248761Y0152533D01*
X0248851Y0152535D01*
X0248941Y0152533D01*
X0249030Y0152527D01*
X0249119Y0152517D01*
X0249208Y0152504D01*
X0249296Y0152486D01*
X0249383Y0152465D01*
X0249470Y0152440D01*
X0249555Y0152411D01*
X0249638Y0152378D01*
X0249720Y0152342D01*
X0249801Y0152303D01*
X0249880Y0152259D01*
X0249956Y0152213D01*
X0250031Y0152163D01*
X0250103Y0152110D01*
X0250173Y0152054D01*
X0250241Y0151995D01*
X0250306Y0151933D01*
X0250368Y0151868D01*
X0250427Y0151800D01*
X0250483Y0151730D01*
X0250536Y0151658D01*
X0250586Y0151583D01*
X0250632Y0151507D01*
X0250676Y0151428D01*
X0250715Y0151347D01*
X0250751Y0151265D01*
X0250784Y0151182D01*
X0250813Y0151097D01*
X0250838Y0151010D01*
X0250859Y0150923D01*
X0250877Y0150835D01*
X0250890Y0150746D01*
X0250900Y0150657D01*
X0250906Y0150568D01*
X0250908Y0150478D01*
X0244156Y0165832D02*
X0266203Y0165832D01*
X0239655Y0165680D02*
X0239655Y0168691D01*
X0239655Y0165680D02*
X0236325Y0165680D01*
X0239655Y0173771D02*
X0239655Y0176880D01*
X0236325Y0176880D01*
X0244156Y0072082D02*
X0266203Y0072082D01*
X0266203Y0056728D02*
X0250908Y0056728D01*
X0246794Y0056728D01*
X0244156Y0056728D01*
X0246794Y0056728D02*
X0246796Y0056818D01*
X0246802Y0056907D01*
X0246812Y0056996D01*
X0246825Y0057085D01*
X0246843Y0057173D01*
X0246864Y0057260D01*
X0246889Y0057347D01*
X0246918Y0057432D01*
X0246951Y0057515D01*
X0246987Y0057597D01*
X0247026Y0057678D01*
X0247070Y0057757D01*
X0247116Y0057833D01*
X0247166Y0057908D01*
X0247219Y0057980D01*
X0247275Y0058050D01*
X0247334Y0058118D01*
X0247396Y0058183D01*
X0247461Y0058245D01*
X0247529Y0058304D01*
X0247599Y0058360D01*
X0247671Y0058413D01*
X0247746Y0058463D01*
X0247823Y0058509D01*
X0247901Y0058553D01*
X0247982Y0058592D01*
X0248064Y0058628D01*
X0248147Y0058661D01*
X0248232Y0058690D01*
X0248319Y0058715D01*
X0248406Y0058736D01*
X0248494Y0058754D01*
X0248583Y0058767D01*
X0248672Y0058777D01*
X0248761Y0058783D01*
X0248851Y0058785D01*
X0248941Y0058783D01*
X0249030Y0058777D01*
X0249119Y0058767D01*
X0249208Y0058754D01*
X0249296Y0058736D01*
X0249383Y0058715D01*
X0249470Y0058690D01*
X0249555Y0058661D01*
X0249638Y0058628D01*
X0249720Y0058592D01*
X0249801Y0058553D01*
X0249880Y0058509D01*
X0249956Y0058463D01*
X0250031Y0058413D01*
X0250103Y0058360D01*
X0250173Y0058304D01*
X0250241Y0058245D01*
X0250306Y0058183D01*
X0250368Y0058118D01*
X0250427Y0058050D01*
X0250483Y0057980D01*
X0250536Y0057908D01*
X0250586Y0057833D01*
X0250632Y0057757D01*
X0250676Y0057678D01*
X0250715Y0057597D01*
X0250751Y0057515D01*
X0250784Y0057432D01*
X0250813Y0057347D01*
X0250838Y0057260D01*
X0250859Y0057173D01*
X0250877Y0057085D01*
X0250890Y0056996D01*
X0250900Y0056907D01*
X0250906Y0056818D01*
X0250908Y0056728D01*
X0225906Y0056587D02*
X0223551Y0054232D01*
X0221352Y0056431D01*
X0217760Y0060022D02*
X0215631Y0062152D01*
X0217986Y0064506D01*
D11*
X0230000Y0057320D02*
X0232171Y0055150D01*
X0232171Y0058405D01*
X0228915Y0055150D01*
X0231628Y0052437D02*
X0233798Y0052437D01*
X0232171Y0052979D02*
X0232171Y0051894D01*
X0233256Y0050809D01*
X0234341Y0050809D01*
X0236511Y0052979D01*
X0236511Y0054065D01*
X0235426Y0055150D01*
X0234341Y0055150D01*
X0232171Y0052979D01*
X0194849Y0086839D02*
X0193764Y0085754D01*
X0192678Y0085754D01*
X0192136Y0086296D01*
X0192136Y0087381D01*
X0192678Y0087924D01*
X0192136Y0087381D02*
X0191051Y0087381D01*
X0190508Y0087924D01*
X0190508Y0089009D01*
X0191593Y0090094D01*
X0192678Y0090094D01*
X0193764Y0091179D02*
X0195934Y0089009D01*
X0197019Y0089009D01*
X0198104Y0090094D01*
X0198104Y0091179D01*
X0195934Y0093350D01*
X0194849Y0093350D01*
X0193764Y0092265D01*
X0193764Y0091179D01*
X0196476Y0090637D02*
X0196476Y0088466D01*
X0194849Y0087924D02*
X0194849Y0086839D01*
X0196732Y0117118D02*
X0199988Y0120374D01*
X0198360Y0122001D01*
X0197275Y0122001D01*
X0196190Y0120916D01*
X0196190Y0119831D01*
X0197817Y0118203D01*
X0196732Y0119289D02*
X0194562Y0119289D01*
X0193477Y0120374D02*
X0191306Y0122544D01*
X0192392Y0121459D02*
X0195647Y0124714D01*
X0195647Y0122544D01*
X0191306Y0124714D02*
X0191306Y0125800D01*
X0190221Y0126885D01*
X0189136Y0126885D01*
X0188594Y0126342D01*
X0188594Y0125257D01*
X0189679Y0124172D01*
X0190764Y0124172D01*
X0191306Y0124714D01*
X0191306Y0125800D02*
X0192392Y0125800D01*
X0192934Y0126342D01*
X0192934Y0127427D01*
X0191849Y0128512D01*
X0190764Y0128512D01*
X0190221Y0127970D01*
X0190221Y0126885D01*
X0191234Y0131418D02*
X0186630Y0131418D01*
X0188164Y0131418D02*
X0188164Y0133720D01*
X0188932Y0134488D01*
X0190466Y0134488D01*
X0191234Y0133720D01*
X0191234Y0131418D01*
X0188164Y0132953D02*
X0186630Y0134488D01*
X0186630Y0136022D02*
X0186630Y0139092D01*
X0186630Y0137557D02*
X0191234Y0137557D01*
X0189699Y0136022D01*
X0189699Y0140626D02*
X0188932Y0141394D01*
X0188932Y0143696D01*
X0190466Y0143696D02*
X0187397Y0143696D01*
X0186630Y0142928D01*
X0186630Y0141394D01*
X0187397Y0140626D01*
X0189699Y0140626D02*
X0190466Y0140626D01*
X0191234Y0141394D01*
X0191234Y0142928D01*
X0190466Y0143696D01*
X0227880Y0147668D02*
X0232484Y0147668D01*
X0232484Y0149970D01*
X0231716Y0150738D01*
X0230182Y0150738D01*
X0229414Y0149970D01*
X0229414Y0147668D01*
X0229414Y0149203D02*
X0227880Y0150738D01*
X0227880Y0152272D02*
X0230949Y0155342D01*
X0231716Y0155342D01*
X0232484Y0154574D01*
X0232484Y0153040D01*
X0231716Y0152272D01*
X0227880Y0152272D02*
X0227880Y0155342D01*
X0227880Y0156876D02*
X0227880Y0159946D01*
X0227880Y0158411D02*
X0232484Y0158411D01*
X0230949Y0156876D01*
X0242449Y0175230D02*
X0243983Y0175230D01*
X0244751Y0175998D01*
X0244751Y0177532D02*
X0243216Y0178299D01*
X0242449Y0178299D01*
X0241681Y0177532D01*
X0241681Y0175998D01*
X0242449Y0175230D01*
X0244751Y0177532D02*
X0244751Y0179834D01*
X0241681Y0179834D01*
X0246285Y0179067D02*
X0246285Y0175998D01*
X0247053Y0175230D01*
X0248587Y0175230D01*
X0249355Y0175998D01*
X0249355Y0179067D01*
X0248587Y0179834D01*
X0247053Y0179834D01*
X0246285Y0179067D01*
X0247820Y0176765D02*
X0246285Y0175230D01*
X0137480Y0102209D02*
X0135945Y0102209D01*
X0136712Y0102209D02*
X0136712Y0097605D01*
X0135945Y0097605D02*
X0137480Y0097605D01*
X0134410Y0098373D02*
X0134410Y0101442D01*
X0133643Y0102209D01*
X0132108Y0102209D01*
X0131341Y0101442D01*
X0129806Y0101442D02*
X0129039Y0102209D01*
X0127504Y0102209D01*
X0126737Y0101442D01*
X0126737Y0100674D01*
X0129806Y0097605D01*
X0126737Y0097605D01*
X0131341Y0098373D02*
X0132108Y0097605D01*
X0133643Y0097605D01*
X0134410Y0098373D01*
X0146906Y0089784D02*
X0147448Y0090327D01*
X0148534Y0090327D01*
X0149619Y0089242D01*
X0149619Y0088156D01*
X0150704Y0087071D02*
X0148533Y0084901D01*
X0148534Y0083816D01*
X0149619Y0082731D01*
X0150704Y0082731D01*
X0152874Y0084901D01*
X0152874Y0085986D01*
X0151789Y0087071D01*
X0150704Y0087071D01*
X0150161Y0084358D02*
X0147991Y0084358D01*
X0146906Y0085443D02*
X0144735Y0087614D01*
X0146906Y0089784D02*
X0146906Y0085443D01*
X0142474Y0069762D02*
X0142474Y0066507D01*
X0140304Y0068677D01*
X0139219Y0066507D02*
X0142474Y0069762D01*
X0144644Y0066507D02*
X0143559Y0065422D01*
X0143559Y0064337D01*
X0145187Y0062709D01*
X0144102Y0063794D02*
X0141931Y0063794D01*
X0144102Y0061624D02*
X0147357Y0064879D01*
X0145730Y0066507D01*
X0144644Y0066507D01*
X0102562Y0072677D02*
X0099306Y0075932D01*
X0100391Y0077017D02*
X0098221Y0074847D01*
X0098221Y0072677D02*
X0096051Y0072677D01*
X0099306Y0069421D01*
X0100391Y0070506D02*
X0098221Y0068336D01*
X0073060Y0056896D02*
X0073060Y0052292D01*
X0070758Y0052292D01*
X0069991Y0053060D01*
X0069991Y0056129D01*
X0070758Y0056896D01*
X0073060Y0056896D01*
X0068456Y0055361D02*
X0066922Y0056896D01*
X0066922Y0052292D01*
X0068456Y0052292D02*
X0065387Y0052292D01*
X0091147Y0158355D02*
X0090380Y0159123D01*
X0090380Y0160657D01*
X0091147Y0161424D01*
X0091147Y0162959D02*
X0091914Y0162959D01*
X0092682Y0163726D01*
X0092682Y0165261D01*
X0091914Y0166028D01*
X0091147Y0166028D01*
X0090380Y0165261D01*
X0090380Y0163726D01*
X0091147Y0162959D01*
X0092682Y0163726D02*
X0093449Y0162959D01*
X0094216Y0162959D01*
X0094984Y0163726D01*
X0094984Y0165261D01*
X0094216Y0166028D01*
X0093449Y0166028D01*
X0092682Y0165261D01*
X0094216Y0161424D02*
X0094984Y0160657D01*
X0094984Y0159123D01*
X0094216Y0158355D01*
X0091147Y0158355D01*
D12*
X0114385Y0169245D02*
X0115852Y0167777D01*
X0115852Y0167410D01*
X0116594Y0167777D02*
X0116961Y0167410D01*
X0117695Y0167410D01*
X0118062Y0167777D01*
X0118062Y0169245D01*
X0117695Y0169612D01*
X0116961Y0169612D01*
X0116594Y0169245D01*
X0115852Y0169612D02*
X0114385Y0169612D01*
X0114385Y0169245D01*
X0104137Y0175639D02*
X0103770Y0175272D01*
X0102302Y0175272D01*
X0101935Y0175639D01*
X0101935Y0176373D01*
X0102302Y0176740D01*
X0102302Y0177482D02*
X0101935Y0177849D01*
X0101935Y0178583D01*
X0102302Y0178950D01*
X0102669Y0178950D01*
X0103036Y0178583D01*
X0103036Y0177482D01*
X0102302Y0177482D01*
X0103036Y0177482D02*
X0103770Y0178216D01*
X0104137Y0178950D01*
X0103770Y0176740D02*
X0104137Y0176373D01*
X0104137Y0175639D01*
X0167474Y0159839D02*
X0167474Y0159105D01*
X0167841Y0158738D01*
X0169309Y0160206D01*
X0167841Y0160206D01*
X0167474Y0159839D01*
X0167841Y0158738D02*
X0169309Y0158738D01*
X0169676Y0159105D01*
X0169676Y0159839D01*
X0169309Y0160206D01*
X0167474Y0157996D02*
X0167474Y0156528D01*
X0167474Y0157262D02*
X0169676Y0157262D01*
X0168942Y0156528D01*
X0169309Y0155786D02*
X0169676Y0155419D01*
X0169676Y0154685D01*
X0169309Y0154318D01*
X0167841Y0154318D01*
X0167474Y0154685D01*
X0167474Y0155419D01*
X0167841Y0155786D01*
D13*
X0149451Y0167945D02*
X0148968Y0167461D01*
X0147033Y0167461D01*
X0146549Y0167945D01*
X0146549Y0168913D01*
X0147033Y0169396D01*
X0147033Y0170408D02*
X0146549Y0170892D01*
X0146549Y0171859D01*
X0147033Y0172343D01*
X0148968Y0172343D01*
X0149451Y0171859D01*
X0149451Y0170892D01*
X0148968Y0170408D01*
X0148484Y0170408D01*
X0148000Y0170892D01*
X0148000Y0172343D01*
X0148968Y0169396D02*
X0149451Y0168913D01*
X0149451Y0167945D01*
X0128780Y0140008D02*
X0127545Y0140008D01*
X0128162Y0140008D02*
X0128162Y0136305D01*
X0127545Y0136305D02*
X0128780Y0136305D01*
X0126324Y0136922D02*
X0126324Y0139391D01*
X0125707Y0140008D01*
X0124473Y0140008D01*
X0123855Y0139391D01*
X0122641Y0138774D02*
X0121407Y0140008D01*
X0121407Y0136305D01*
X0122641Y0136305D02*
X0120172Y0136305D01*
X0123855Y0136922D02*
X0124473Y0136305D01*
X0125707Y0136305D01*
X0126324Y0136922D01*
X0082092Y0157234D02*
X0081608Y0156750D01*
X0080640Y0156750D01*
X0080157Y0157234D01*
X0079145Y0157234D02*
X0078661Y0156750D01*
X0077694Y0156750D01*
X0077210Y0157234D01*
X0077210Y0158201D01*
X0077694Y0158685D01*
X0078178Y0158685D01*
X0079145Y0158201D01*
X0079145Y0159653D01*
X0077210Y0159653D01*
X0080157Y0159169D02*
X0080640Y0159653D01*
X0081608Y0159653D01*
X0082092Y0159169D01*
X0082092Y0157234D01*
X0193249Y0159797D02*
X0193866Y0159180D01*
X0196335Y0159180D01*
X0196952Y0159797D01*
X0196952Y0161032D01*
X0196335Y0161649D01*
X0195718Y0162863D02*
X0196952Y0164098D01*
X0193249Y0164098D01*
X0193249Y0165332D02*
X0193249Y0162863D01*
X0193866Y0161649D02*
X0193249Y0161032D01*
X0193249Y0159797D01*
X0193866Y0166546D02*
X0193249Y0167163D01*
X0193249Y0168398D01*
X0193866Y0169015D01*
X0194483Y0169015D01*
X0195100Y0168398D01*
X0195100Y0166546D01*
X0193866Y0166546D01*
X0195100Y0166546D02*
X0196335Y0167781D01*
X0196952Y0169015D01*
X0221437Y0132008D02*
X0220820Y0131391D01*
X0223288Y0128922D01*
X0222671Y0128305D01*
X0221437Y0128305D01*
X0220820Y0128922D01*
X0220820Y0131391D01*
X0221437Y0132008D02*
X0222671Y0132008D01*
X0223288Y0131391D01*
X0223288Y0128922D01*
X0224503Y0128305D02*
X0226971Y0128305D01*
X0224503Y0130774D01*
X0224503Y0131391D01*
X0225120Y0132008D01*
X0226354Y0132008D01*
X0226971Y0131391D01*
X0228186Y0131391D02*
X0228186Y0130157D01*
X0228803Y0129540D01*
X0230655Y0129540D01*
X0229420Y0129540D02*
X0228186Y0128305D01*
X0230655Y0128305D02*
X0230655Y0132008D01*
X0228803Y0132008D01*
X0228186Y0131391D01*
X0194649Y0111817D02*
X0194991Y0110790D01*
X0194991Y0109422D01*
X0193965Y0110448D01*
X0193281Y0110448D01*
X0192939Y0110106D01*
X0192939Y0109422D01*
X0193623Y0108738D01*
X0194307Y0108738D01*
X0194991Y0109422D01*
X0194680Y0107681D02*
X0196048Y0106313D01*
X0195364Y0106997D02*
X0197417Y0109049D01*
X0197417Y0107681D01*
X0198474Y0107308D02*
X0197790Y0106623D01*
X0197790Y0105939D01*
X0198816Y0104913D01*
X0198132Y0104229D02*
X0200184Y0106281D01*
X0199158Y0107308D01*
X0198474Y0107308D01*
X0198132Y0105597D02*
X0196764Y0105597D01*
X0197987Y0067428D02*
X0197987Y0063724D01*
X0196753Y0063724D02*
X0199222Y0063724D01*
X0200436Y0064342D02*
X0201053Y0063724D01*
X0202288Y0063724D01*
X0202905Y0064342D01*
X0202905Y0066810D01*
X0202288Y0067428D01*
X0201053Y0067428D01*
X0200436Y0066810D01*
X0199222Y0066193D02*
X0197987Y0067428D01*
X0195539Y0067428D02*
X0195539Y0065576D01*
X0194304Y0066193D01*
X0193687Y0066193D01*
X0193070Y0065576D01*
X0193070Y0064342D01*
X0193687Y0063724D01*
X0194921Y0063724D01*
X0195539Y0064342D01*
X0195539Y0067428D02*
X0193070Y0067428D01*
X0143116Y0044421D02*
X0139980Y0041285D01*
X0141548Y0041285D02*
X0141548Y0044421D01*
X0139980Y0044421D02*
X0143116Y0041285D01*
X0143116Y0042853D02*
X0139980Y0042853D01*
D14*
X0157173Y0052155D02*
X0160176Y0052155D01*
X0158674Y0052155D02*
X0158674Y0056659D01*
X0160176Y0055158D01*
X0161777Y0056659D02*
X0161777Y0052906D01*
X0162528Y0052155D01*
X0164029Y0052155D01*
X0164780Y0052906D01*
X0164780Y0056659D01*
X0213680Y0082031D02*
X0214430Y0081280D01*
X0213680Y0082031D02*
X0213680Y0083532D01*
X0214430Y0084283D01*
X0215181Y0084283D01*
X0215932Y0083532D01*
X0215932Y0082031D01*
X0216682Y0081280D01*
X0217433Y0081280D01*
X0218183Y0082031D01*
X0218183Y0083532D01*
X0217433Y0084283D01*
X0218183Y0087385D02*
X0218183Y0088887D01*
X0218183Y0088136D02*
X0214430Y0088136D01*
X0213680Y0087385D01*
X0213680Y0086635D01*
X0214430Y0085884D01*
X0213680Y0090488D02*
X0213680Y0093491D01*
X0213680Y0091989D02*
X0218183Y0091989D01*
X0216682Y0090488D01*
X0249031Y0096843D02*
X0252034Y0096843D01*
X0249031Y0099845D01*
X0249031Y0100596D01*
X0249782Y0101347D01*
X0251283Y0101347D01*
X0252034Y0100596D01*
X0253635Y0100596D02*
X0253635Y0099095D01*
X0254386Y0098344D01*
X0256637Y0098344D01*
X0256637Y0096843D02*
X0256637Y0101347D01*
X0254386Y0101347D01*
X0253635Y0100596D01*
X0258239Y0100596D02*
X0258239Y0097593D01*
X0258989Y0096843D01*
X0260491Y0096843D01*
X0261241Y0097593D01*
X0261241Y0100596D01*
X0260491Y0101347D01*
X0258989Y0101347D01*
X0258239Y0100596D01*
X0258989Y0143405D02*
X0258239Y0144156D01*
X0258239Y0147158D01*
X0258989Y0147909D01*
X0260491Y0147909D01*
X0261241Y0147158D01*
X0261241Y0144156D01*
X0260491Y0143405D01*
X0258989Y0143405D01*
X0256637Y0143405D02*
X0256637Y0147909D01*
X0254386Y0147909D01*
X0253635Y0147158D01*
X0253635Y0145657D01*
X0254386Y0144906D01*
X0256637Y0144906D01*
X0252034Y0144156D02*
X0251283Y0143405D01*
X0249782Y0143405D01*
X0249031Y0144156D01*
X0249031Y0144906D01*
X0249782Y0145657D01*
X0250532Y0145657D01*
X0249782Y0145657D02*
X0249031Y0146408D01*
X0249031Y0147158D01*
X0249782Y0147909D01*
X0251283Y0147909D01*
X0252034Y0147158D01*
X0250532Y0054159D02*
X0250532Y0049655D01*
X0249031Y0049655D02*
X0252034Y0049655D01*
X0253635Y0051907D02*
X0254386Y0051156D01*
X0256637Y0051156D01*
X0256637Y0049655D02*
X0256637Y0054159D01*
X0254386Y0054159D01*
X0253635Y0053408D01*
X0253635Y0051907D01*
X0252034Y0052658D02*
X0250532Y0054159D01*
X0258239Y0053408D02*
X0258239Y0050406D01*
X0258989Y0049655D01*
X0260491Y0049655D01*
X0261241Y0050406D01*
X0261241Y0053408D01*
X0260491Y0054159D01*
X0258989Y0054159D01*
X0258239Y0053408D01*
M02*
