G75*
%MOIN*%
%OFA0B0*%
%FSLAX25Y25*%
%IPPOS*%
%LPD*%
%AMOC8*
5,1,8,0,0,1.08239X$1,22.5*
%
%ADD10OC8,0.05200*%
%ADD11C,0.05200*%
%ADD12OC8,0.06300*%
%ADD13C,0.06300*%
%ADD14OC8,0.05600*%
%ADD15C,0.07600*%
%ADD16C,0.01120*%
%ADD17C,0.05200*%
%ADD18C,0.07050*%
%ADD19R,0.07874X0.05906*%
%ADD20C,0.06000*%
%ADD21C,0.10000*%
%ADD22C,0.02400*%
%ADD23C,0.05600*%
%ADD24C,0.01600*%
D10*
X0059930Y0065030D03*
D11*
X0067930Y0065030D03*
D12*
X0098930Y0085655D03*
D13*
X0108930Y0085655D03*
D14*
X0125180Y0085030D03*
X0135180Y0085030D03*
X0141430Y0096905D03*
X0121430Y0096905D03*
X0110805Y0105030D03*
X0114555Y0115655D03*
X0104555Y0115655D03*
X0090805Y0105030D03*
X0076430Y0073780D03*
X0080180Y0064405D03*
X0080180Y0054405D03*
X0078930Y0048155D03*
X0058930Y0048155D03*
X0093305Y0066280D03*
X0123305Y0066280D03*
X0131430Y0066280D03*
X0151430Y0066280D03*
X0163930Y0061280D03*
X0173930Y0061280D03*
X0173930Y0069405D03*
X0173930Y0079405D03*
X0163930Y0083780D03*
X0163930Y0103780D03*
X0164555Y0111905D03*
X0164555Y0121905D03*
X0153930Y0135655D03*
X0143930Y0135655D03*
X0151430Y0148155D03*
X0145180Y0149405D03*
X0151430Y0158155D03*
X0152680Y0174405D03*
X0122680Y0174405D03*
X0105180Y0149405D03*
X0081430Y0173155D03*
X0071430Y0173155D03*
X0205805Y0083155D03*
X0205805Y0073155D03*
X0161430Y0047530D03*
X0131430Y0047530D03*
X0242055Y0130655D03*
X0242055Y0140655D03*
D15*
X0097680Y0144405D03*
X0087055Y0155655D03*
X0072055Y0155655D03*
X0060180Y0143155D03*
X0060180Y0173155D03*
X0097680Y0174405D03*
D16*
X0131417Y0135273D02*
X0130857Y0134713D01*
X0131338Y0136506D01*
X0132943Y0137433D01*
X0134736Y0136952D01*
X0135663Y0135347D01*
X0135182Y0133554D01*
X0133577Y0132627D01*
X0131784Y0133108D01*
X0130857Y0134713D01*
X0131759Y0134832D01*
X0132059Y0135952D01*
X0133062Y0136531D01*
X0134182Y0136231D01*
X0134761Y0135228D01*
X0134461Y0134108D01*
X0133458Y0133529D01*
X0132338Y0133829D01*
X0131759Y0134832D01*
X0132660Y0134951D01*
X0132780Y0135399D01*
X0133181Y0135630D01*
X0133629Y0135510D01*
X0133860Y0135109D01*
X0133740Y0134661D01*
X0133339Y0134430D01*
X0132891Y0134550D01*
X0132660Y0134951D01*
X0122756Y0130273D02*
X0122196Y0129713D01*
X0122677Y0131506D01*
X0124282Y0132433D01*
X0126075Y0131952D01*
X0127002Y0130347D01*
X0126521Y0128554D01*
X0124916Y0127627D01*
X0123123Y0128108D01*
X0122196Y0129713D01*
X0123098Y0129832D01*
X0123398Y0130952D01*
X0124401Y0131531D01*
X0125521Y0131231D01*
X0126100Y0130228D01*
X0125800Y0129108D01*
X0124797Y0128529D01*
X0123677Y0128829D01*
X0123098Y0129832D01*
X0123999Y0129951D01*
X0124119Y0130399D01*
X0124520Y0130630D01*
X0124968Y0130510D01*
X0125199Y0130109D01*
X0125079Y0129661D01*
X0124678Y0129430D01*
X0124230Y0129550D01*
X0123999Y0129951D01*
X0226611Y0125998D02*
X0226051Y0126558D01*
X0227879Y0126236D01*
X0228942Y0124717D01*
X0228620Y0122889D01*
X0227101Y0121826D01*
X0225273Y0122148D01*
X0224210Y0123667D01*
X0224532Y0125495D01*
X0226051Y0126558D01*
X0226248Y0125670D01*
X0227390Y0125469D01*
X0228054Y0124520D01*
X0227853Y0123378D01*
X0226904Y0122714D01*
X0225762Y0122915D01*
X0225098Y0123864D01*
X0225299Y0125006D01*
X0226248Y0125670D01*
X0226445Y0124783D01*
X0226902Y0124702D01*
X0227167Y0124323D01*
X0227086Y0123866D01*
X0226707Y0123601D01*
X0226250Y0123682D01*
X0225985Y0124061D01*
X0226066Y0124518D01*
X0226445Y0124783D01*
X0243818Y0101424D02*
X0243258Y0101984D01*
X0245086Y0101662D01*
X0246149Y0100143D01*
X0245827Y0098315D01*
X0244308Y0097252D01*
X0242480Y0097574D01*
X0241417Y0099093D01*
X0241739Y0100921D01*
X0243258Y0101984D01*
X0243455Y0101096D01*
X0244597Y0100895D01*
X0245261Y0099946D01*
X0245060Y0098804D01*
X0244111Y0098140D01*
X0242969Y0098341D01*
X0242305Y0099290D01*
X0242506Y0100432D01*
X0243455Y0101096D01*
X0243652Y0100209D01*
X0244109Y0100128D01*
X0244374Y0099749D01*
X0244293Y0099292D01*
X0243914Y0099027D01*
X0243457Y0099108D01*
X0243192Y0099487D01*
X0243273Y0099944D01*
X0243652Y0100209D01*
X0242299Y0075324D02*
X0241739Y0074764D01*
X0241417Y0076592D01*
X0242480Y0078111D01*
X0244308Y0078433D01*
X0245827Y0077370D01*
X0246149Y0075542D01*
X0245086Y0074023D01*
X0243258Y0073701D01*
X0241739Y0074764D01*
X0242506Y0075253D01*
X0242305Y0076395D01*
X0242969Y0077344D01*
X0244111Y0077545D01*
X0245060Y0076881D01*
X0245261Y0075739D01*
X0244597Y0074790D01*
X0243455Y0074589D01*
X0242506Y0075253D01*
X0243273Y0075741D01*
X0243192Y0076198D01*
X0243457Y0076577D01*
X0243914Y0076658D01*
X0244293Y0076393D01*
X0244374Y0075936D01*
X0244109Y0075557D01*
X0243652Y0075476D01*
X0243273Y0075741D01*
X0225092Y0050750D02*
X0224532Y0050190D01*
X0224210Y0052018D01*
X0225273Y0053537D01*
X0227101Y0053859D01*
X0228620Y0052796D01*
X0228942Y0050968D01*
X0227879Y0049449D01*
X0226051Y0049127D01*
X0224532Y0050190D01*
X0225299Y0050679D01*
X0225098Y0051821D01*
X0225762Y0052770D01*
X0226904Y0052971D01*
X0227853Y0052307D01*
X0228054Y0051165D01*
X0227390Y0050216D01*
X0226248Y0050015D01*
X0225299Y0050679D01*
X0226066Y0051167D01*
X0225985Y0051624D01*
X0226250Y0052003D01*
X0226707Y0052084D01*
X0227086Y0051819D01*
X0227167Y0051362D01*
X0226902Y0050983D01*
X0226445Y0050902D01*
X0226066Y0051167D01*
D17*
X0202780Y0047530D02*
X0197580Y0047530D01*
X0172780Y0047530D02*
X0167580Y0047530D01*
X0154655Y0075655D02*
X0149455Y0075655D01*
X0124655Y0075655D02*
X0119455Y0075655D01*
X0172580Y0091905D02*
X0177780Y0091905D01*
X0177780Y0101905D02*
X0172580Y0101905D01*
X0172580Y0111905D02*
X0177780Y0111905D01*
X0177780Y0121905D02*
X0172580Y0121905D01*
X0172580Y0131905D02*
X0177780Y0131905D01*
X0177780Y0141905D02*
X0172580Y0141905D01*
X0162680Y0140755D02*
X0162680Y0135555D01*
X0172580Y0151905D02*
X0177780Y0151905D01*
X0177780Y0161905D02*
X0172580Y0161905D01*
X0162680Y0165555D02*
X0162680Y0170755D01*
X0142780Y0165030D02*
X0137580Y0165030D01*
X0112780Y0165030D02*
X0107580Y0165030D01*
X0202580Y0161905D02*
X0207780Y0161905D01*
X0215805Y0157005D02*
X0215805Y0151805D01*
X0207780Y0151905D02*
X0202580Y0151905D01*
X0202580Y0141905D02*
X0207780Y0141905D01*
X0207780Y0131905D02*
X0202580Y0131905D01*
X0215805Y0127005D02*
X0215805Y0121805D01*
X0207780Y0121905D02*
X0202580Y0121905D01*
X0215805Y0114505D02*
X0215805Y0109305D01*
X0207780Y0111905D02*
X0202580Y0111905D01*
X0202580Y0101905D02*
X0207780Y0101905D01*
X0207780Y0091905D02*
X0202580Y0091905D01*
X0228305Y0099930D02*
X0228305Y0105130D01*
X0225180Y0135555D02*
X0225180Y0140755D01*
X0225180Y0165555D02*
X0225180Y0170755D01*
X0228305Y0075130D02*
X0228305Y0069930D01*
X0215805Y0069305D02*
X0215805Y0074505D01*
D18*
X0276030Y0074248D02*
X0283080Y0074248D01*
X0283080Y0054563D02*
X0276030Y0054563D01*
X0276030Y0101750D02*
X0283080Y0101750D01*
X0283080Y0121435D02*
X0276030Y0121435D01*
X0276030Y0148313D02*
X0283080Y0148313D01*
X0283080Y0167998D02*
X0276030Y0167998D01*
X0068626Y0128465D02*
X0061576Y0128465D01*
X0061576Y0108780D02*
X0068626Y0108780D01*
X0068626Y0089095D02*
X0061576Y0089095D01*
D19*
X0127055Y0106625D03*
X0127055Y0118436D03*
D20*
X0117555Y0123780D02*
X0111555Y0123780D01*
X0097555Y0123780D02*
X0091555Y0123780D01*
X0101555Y0133780D02*
X0107555Y0133780D01*
X0106430Y0053655D02*
X0106430Y0047655D01*
X0116430Y0047655D02*
X0116430Y0053655D01*
X0096430Y0053655D02*
X0096430Y0047655D01*
D21*
X0187680Y0059405D03*
X0187680Y0076905D03*
D22*
X0051430Y0045855D02*
X0051430Y0111255D01*
X0054023Y0111255D01*
X0053651Y0110357D01*
X0053651Y0107204D01*
X0054857Y0104291D01*
X0057087Y0102062D01*
X0059999Y0100855D01*
X0070202Y0100855D01*
X0073115Y0102062D01*
X0075344Y0104291D01*
X0076551Y0107204D01*
X0076551Y0110357D01*
X0076179Y0111255D01*
X0079805Y0111255D01*
X0081422Y0111925D01*
X0082660Y0113163D01*
X0083330Y0114780D01*
X0083330Y0148323D01*
X0083330Y0140166D01*
X0084182Y0138108D01*
X0085757Y0136533D01*
X0085757Y0136533D01*
X0091110Y0131180D01*
X0090083Y0131180D01*
X0087363Y0130054D01*
X0085281Y0127972D01*
X0084155Y0125252D01*
X0084155Y0122308D01*
X0085281Y0119588D01*
X0087363Y0117507D01*
X0090083Y0116380D01*
X0097355Y0116380D01*
X0097355Y0112673D01*
X0101572Y0108455D01*
X0104047Y0108455D01*
X0103605Y0108013D01*
X0103605Y0102048D01*
X0107822Y0097830D01*
X0110922Y0097830D01*
X0105498Y0092406D01*
X0104653Y0092056D01*
X0102529Y0089932D01*
X0102438Y0089713D01*
X0101146Y0091005D01*
X0098930Y0091005D01*
X0098930Y0085655D01*
X0101380Y0085655D01*
X0101380Y0085655D01*
X0098930Y0085655D01*
X0098930Y0085655D01*
X0098930Y0080305D01*
X0101146Y0080305D01*
X0101730Y0080889D01*
X0101730Y0064223D01*
X0102826Y0061577D01*
X0103819Y0060584D01*
X0102238Y0059929D01*
X0101430Y0059120D01*
X0100621Y0059929D01*
X0098156Y0060950D01*
X0100505Y0063298D01*
X0100505Y0069263D01*
X0096287Y0073480D01*
X0090322Y0073480D01*
X0086105Y0069263D01*
X0086105Y0068662D01*
X0083162Y0071605D01*
X0077197Y0071605D01*
X0074076Y0068484D01*
X0073864Y0068995D01*
X0071895Y0070964D01*
X0069322Y0072030D01*
X0066537Y0072030D01*
X0063964Y0070964D01*
X0062374Y0069374D01*
X0061918Y0069830D01*
X0059930Y0069830D01*
X0059930Y0065030D01*
X0059930Y0060230D01*
X0061918Y0060230D01*
X0062374Y0060686D01*
X0063964Y0059096D01*
X0066537Y0058030D01*
X0069322Y0058030D01*
X0071895Y0059096D01*
X0073601Y0060802D01*
X0074997Y0059405D01*
X0072980Y0057388D01*
X0072980Y0052388D01*
X0071730Y0051138D01*
X0071730Y0045855D01*
X0063701Y0045855D01*
X0063930Y0046084D01*
X0063930Y0048155D01*
X0058930Y0048155D01*
X0058930Y0048155D01*
X0063930Y0048155D01*
X0063930Y0050226D01*
X0061001Y0053155D01*
X0058930Y0053155D01*
X0058930Y0048155D01*
X0058930Y0048155D01*
X0058929Y0048155D02*
X0053930Y0048155D01*
X0053930Y0046084D01*
X0054159Y0045855D01*
X0051430Y0045855D01*
X0051430Y0047851D02*
X0053930Y0047851D01*
X0053930Y0048155D02*
X0058929Y0048155D01*
X0058929Y0048155D01*
X0058930Y0048155D02*
X0058930Y0053155D01*
X0056859Y0053155D01*
X0053930Y0050226D01*
X0053930Y0048155D01*
X0053953Y0050249D02*
X0051430Y0050249D01*
X0051430Y0052648D02*
X0056351Y0052648D01*
X0058930Y0052648D02*
X0058930Y0052648D01*
X0058930Y0050249D02*
X0058930Y0050249D01*
X0061508Y0052648D02*
X0072980Y0052648D01*
X0072980Y0055046D02*
X0051430Y0055046D01*
X0051430Y0057445D02*
X0073037Y0057445D01*
X0072642Y0059843D02*
X0074559Y0059843D01*
X0071730Y0050249D02*
X0063907Y0050249D01*
X0063930Y0047851D02*
X0071730Y0047851D01*
X0063217Y0059843D02*
X0051430Y0059843D01*
X0051430Y0062242D02*
X0055930Y0062242D01*
X0055130Y0063042D02*
X0057941Y0060230D01*
X0059930Y0060230D01*
X0059930Y0065030D01*
X0059930Y0065030D01*
X0059930Y0065030D01*
X0059929Y0065030D02*
X0055130Y0065030D01*
X0055130Y0063042D01*
X0055130Y0064640D02*
X0051430Y0064640D01*
X0051430Y0067039D02*
X0055150Y0067039D01*
X0055130Y0067018D02*
X0055130Y0065030D01*
X0059929Y0065030D01*
X0059929Y0065030D01*
X0059930Y0065030D02*
X0059930Y0069830D01*
X0057941Y0069830D01*
X0055130Y0067018D01*
X0057549Y0069437D02*
X0051430Y0069437D01*
X0051430Y0071836D02*
X0066068Y0071836D01*
X0069791Y0071836D02*
X0088678Y0071836D01*
X0086279Y0069437D02*
X0085330Y0069437D01*
X0075029Y0069437D02*
X0073422Y0069437D01*
X0062437Y0069437D02*
X0062311Y0069437D01*
X0059930Y0069437D02*
X0059930Y0069437D01*
X0059930Y0067039D02*
X0059930Y0067039D01*
X0059930Y0064640D02*
X0059930Y0064640D01*
X0059930Y0062242D02*
X0059930Y0062242D01*
X0051430Y0074234D02*
X0101730Y0074234D01*
X0101730Y0071836D02*
X0097931Y0071836D01*
X0100330Y0069437D02*
X0101730Y0069437D01*
X0101730Y0067039D02*
X0100505Y0067039D01*
X0100505Y0064640D02*
X0101730Y0064640D01*
X0102550Y0062242D02*
X0099449Y0062242D01*
X0100707Y0059843D02*
X0102153Y0059843D01*
X0123630Y0059080D02*
X0123630Y0055610D01*
X0123830Y0055127D01*
X0123830Y0046183D01*
X0123694Y0045855D01*
X0124230Y0045855D01*
X0124230Y0050513D01*
X0128447Y0054730D01*
X0134412Y0054730D01*
X0138630Y0050513D01*
X0138630Y0045855D01*
X0154230Y0045855D01*
X0154230Y0050513D01*
X0158447Y0054730D01*
X0160297Y0054730D01*
X0156730Y0058298D01*
X0156730Y0064263D01*
X0160947Y0068480D01*
X0166730Y0068480D01*
X0166730Y0072388D01*
X0168747Y0074405D01*
X0166730Y0076423D01*
X0166730Y0076580D01*
X0160947Y0076580D01*
X0158722Y0078805D01*
X0158293Y0078805D01*
X0158316Y0078782D01*
X0158760Y0078171D01*
X0159103Y0077498D01*
X0159336Y0076779D01*
X0159455Y0076033D01*
X0159455Y0075655D01*
X0152055Y0075655D01*
X0152055Y0075655D01*
X0159455Y0075655D01*
X0159455Y0075277D01*
X0159336Y0074531D01*
X0159103Y0073813D01*
X0158760Y0073139D01*
X0158316Y0072528D01*
X0157782Y0071994D01*
X0157170Y0071550D01*
X0156497Y0071207D01*
X0155779Y0070973D01*
X0155032Y0070855D01*
X0153926Y0070855D01*
X0156430Y0068351D01*
X0156430Y0066280D01*
X0151430Y0066280D01*
X0151430Y0066280D01*
X0151430Y0061280D01*
X0153501Y0061280D01*
X0156430Y0064209D01*
X0156430Y0066280D01*
X0151430Y0066280D01*
X0151430Y0066280D01*
X0151430Y0061280D01*
X0149359Y0061280D01*
X0146430Y0064209D01*
X0146430Y0066280D01*
X0151429Y0066280D01*
X0151429Y0066280D01*
X0146430Y0066280D01*
X0146430Y0068351D01*
X0148953Y0070875D01*
X0148331Y0070973D01*
X0147612Y0071207D01*
X0146939Y0071550D01*
X0146328Y0071994D01*
X0145793Y0072528D01*
X0145349Y0073139D01*
X0145006Y0073813D01*
X0144773Y0074531D01*
X0144655Y0075277D01*
X0144655Y0075655D01*
X0152054Y0075655D01*
X0152054Y0075655D01*
X0144655Y0075655D01*
X0144655Y0076033D01*
X0144773Y0076779D01*
X0145006Y0077498D01*
X0145349Y0078171D01*
X0145793Y0078782D01*
X0145816Y0078805D01*
X0143441Y0078805D01*
X0141382Y0079658D01*
X0139807Y0081233D01*
X0139130Y0081910D01*
X0137251Y0080030D01*
X0135180Y0080030D01*
X0135180Y0085030D01*
X0135180Y0085030D01*
X0135180Y0083155D01*
X0142680Y0075655D01*
X0152055Y0075655D01*
X0151430Y0075655D01*
X0151430Y0065655D01*
X0151430Y0064640D02*
X0151430Y0064640D01*
X0151430Y0062242D02*
X0151430Y0062242D01*
X0154462Y0062242D02*
X0156730Y0062242D01*
X0156730Y0059843D02*
X0135175Y0059843D01*
X0134412Y0059080D02*
X0138630Y0063298D01*
X0138630Y0069263D01*
X0134412Y0073480D01*
X0131330Y0073480D01*
X0131655Y0074263D01*
X0131655Y0077048D01*
X0130589Y0079620D01*
X0130270Y0079939D01*
X0131735Y0081404D01*
X0133109Y0080030D01*
X0135180Y0080030D01*
X0135180Y0085030D01*
X0135180Y0083828D02*
X0135180Y0083828D01*
X0135180Y0081430D02*
X0135180Y0081430D01*
X0138650Y0081430D02*
X0139610Y0081430D01*
X0142895Y0079031D02*
X0130833Y0079031D01*
X0131655Y0076633D02*
X0144750Y0076633D01*
X0144869Y0074234D02*
X0131643Y0074234D01*
X0136056Y0071836D02*
X0146545Y0071836D01*
X0147516Y0069437D02*
X0138455Y0069437D01*
X0138630Y0067039D02*
X0146430Y0067039D01*
X0146430Y0064640D02*
X0138630Y0064640D01*
X0137574Y0062242D02*
X0148397Y0062242D01*
X0156430Y0064640D02*
X0157107Y0064640D01*
X0156430Y0067039D02*
X0159506Y0067039D01*
X0155344Y0069437D02*
X0166730Y0069437D01*
X0166730Y0071836D02*
X0157564Y0071836D01*
X0159240Y0074234D02*
X0168576Y0074234D01*
X0160895Y0076633D02*
X0159360Y0076633D01*
X0163930Y0083780D02*
X0163930Y0084405D01*
X0144555Y0084405D01*
X0132055Y0096905D01*
X0121430Y0096905D01*
X0120918Y0104105D02*
X0118447Y0104105D01*
X0118235Y0103893D01*
X0118005Y0103797D01*
X0118005Y0108013D01*
X0117549Y0108468D01*
X0119137Y0110055D01*
X0120968Y0110055D01*
X0120918Y0109867D01*
X0120918Y0106901D01*
X0126778Y0106901D01*
X0126778Y0106348D01*
X0120918Y0106348D01*
X0120918Y0104105D01*
X0120918Y0105415D02*
X0118005Y0105415D01*
X0118005Y0107814D02*
X0120918Y0107814D01*
X0121149Y0106625D02*
X0100180Y0085655D01*
X0096430Y0085655D01*
X0098929Y0085655D02*
X0093580Y0085655D01*
X0093580Y0083439D01*
X0096714Y0080305D01*
X0098930Y0080305D01*
X0098930Y0085655D01*
X0098930Y0085655D01*
X0098930Y0085655D01*
X0098929Y0085655D02*
X0098929Y0085655D01*
X0093580Y0085655D01*
X0093580Y0087871D01*
X0096714Y0091005D01*
X0098930Y0091005D01*
X0098930Y0085655D01*
X0098930Y0086227D02*
X0098930Y0086227D01*
X0098930Y0088625D02*
X0098930Y0088625D01*
X0094334Y0088625D02*
X0074348Y0088625D01*
X0074351Y0088645D02*
X0074210Y0087755D01*
X0073931Y0086898D01*
X0073522Y0086095D01*
X0072993Y0085366D01*
X0072355Y0084728D01*
X0071626Y0084199D01*
X0070824Y0083790D01*
X0069966Y0083511D01*
X0069076Y0083370D01*
X0065101Y0083370D01*
X0065101Y0089095D01*
X0065101Y0089095D01*
X0065101Y0089095D01*
X0074351Y0089095D01*
X0074351Y0088645D01*
X0074351Y0089095D02*
X0074351Y0089546D01*
X0074210Y0090436D01*
X0073931Y0091293D01*
X0073522Y0092096D01*
X0072993Y0092825D01*
X0072355Y0093462D01*
X0071626Y0093992D01*
X0070824Y0094401D01*
X0069966Y0094679D01*
X0069076Y0094820D01*
X0065101Y0094820D01*
X0065101Y0089095D01*
X0065101Y0083370D01*
X0061125Y0083370D01*
X0060235Y0083511D01*
X0059378Y0083790D01*
X0058575Y0084199D01*
X0057846Y0084728D01*
X0057209Y0085366D01*
X0056679Y0086095D01*
X0056270Y0086898D01*
X0055992Y0087755D01*
X0055851Y0088645D01*
X0055851Y0089095D01*
X0065101Y0089095D01*
X0074351Y0089095D01*
X0074019Y0091024D02*
X0103621Y0091024D01*
X0106515Y0093422D02*
X0072395Y0093422D01*
X0065101Y0093422D02*
X0065101Y0093422D01*
X0065101Y0094820D02*
X0061125Y0094820D01*
X0060235Y0094679D01*
X0059378Y0094401D01*
X0058575Y0093992D01*
X0057846Y0093462D01*
X0057209Y0092825D01*
X0056679Y0092096D01*
X0056270Y0091293D01*
X0055992Y0090436D01*
X0055851Y0089546D01*
X0055851Y0089095D01*
X0065101Y0089095D01*
X0065101Y0089095D01*
X0065101Y0089095D01*
X0065101Y0094820D01*
X0065101Y0091024D02*
X0065101Y0091024D01*
X0065101Y0088625D02*
X0065101Y0088625D01*
X0065101Y0086227D02*
X0065101Y0086227D01*
X0065101Y0083828D02*
X0065101Y0083828D01*
X0059302Y0083828D02*
X0051430Y0083828D01*
X0051430Y0081430D02*
X0095589Y0081430D01*
X0093580Y0083828D02*
X0070900Y0083828D01*
X0073590Y0086227D02*
X0093580Y0086227D01*
X0098930Y0083828D02*
X0098930Y0083828D01*
X0098930Y0081430D02*
X0098930Y0081430D01*
X0101730Y0079031D02*
X0051430Y0079031D01*
X0051430Y0076633D02*
X0101730Y0076633D01*
X0108913Y0095821D02*
X0051430Y0095821D01*
X0051430Y0098219D02*
X0107433Y0098219D01*
X0105034Y0100618D02*
X0093463Y0100618D01*
X0092876Y0100030D02*
X0095805Y0102959D01*
X0095805Y0105030D01*
X0090805Y0105030D01*
X0090805Y0105030D01*
X0090805Y0100030D01*
X0092876Y0100030D01*
X0090805Y0100030D02*
X0090805Y0105030D01*
X0090805Y0105030D01*
X0095805Y0105030D01*
X0095805Y0107101D01*
X0092876Y0110030D01*
X0090805Y0110030D01*
X0090805Y0105030D01*
X0083305Y0112530D01*
X0083305Y0150030D01*
X0079555Y0153780D01*
X0079555Y0158780D01*
X0088930Y0168155D01*
X0088930Y0173155D01*
X0081430Y0173155D01*
X0081430Y0173155D01*
X0086430Y0173155D01*
X0086430Y0171084D01*
X0083501Y0168155D01*
X0081430Y0168155D01*
X0081430Y0173155D01*
X0081430Y0173155D01*
X0086430Y0173155D01*
X0086430Y0175226D01*
X0084468Y0177187D01*
X0092363Y0177187D01*
X0092119Y0176708D01*
X0091827Y0175810D01*
X0091680Y0174877D01*
X0091680Y0174405D01*
X0091680Y0173933D01*
X0091827Y0173000D01*
X0092119Y0172102D01*
X0092548Y0171260D01*
X0093103Y0170496D01*
X0093771Y0169829D01*
X0094535Y0169274D01*
X0095376Y0168845D01*
X0096275Y0168553D01*
X0097207Y0168405D01*
X0097680Y0168405D01*
X0098152Y0168405D01*
X0099085Y0168553D01*
X0099983Y0168845D01*
X0100824Y0169274D01*
X0101588Y0169829D01*
X0102256Y0170496D01*
X0102811Y0171260D01*
X0103240Y0172102D01*
X0103532Y0173000D01*
X0103680Y0173933D01*
X0103680Y0174405D01*
X0097680Y0174405D01*
X0097680Y0174405D01*
X0097680Y0168405D01*
X0097680Y0174405D01*
X0097680Y0174405D01*
X0103680Y0174405D01*
X0103680Y0174877D01*
X0103532Y0175810D01*
X0103240Y0176708D01*
X0102996Y0177187D01*
X0115480Y0177187D01*
X0115480Y0171489D01*
X0114172Y0172030D01*
X0106187Y0172030D01*
X0103614Y0170964D01*
X0101645Y0168995D01*
X0100580Y0166423D01*
X0100580Y0163638D01*
X0101645Y0161065D01*
X0103614Y0159096D01*
X0106187Y0158030D01*
X0114172Y0158030D01*
X0116745Y0159096D01*
X0118714Y0161065D01*
X0119780Y0163638D01*
X0119780Y0166423D01*
X0119284Y0167618D01*
X0119697Y0167205D01*
X0125662Y0167205D01*
X0129880Y0171423D01*
X0129880Y0177187D01*
X0148391Y0177187D01*
X0147680Y0176476D01*
X0147680Y0174405D01*
X0147680Y0172334D01*
X0150609Y0169405D01*
X0152680Y0169405D01*
X0154751Y0169405D01*
X0155680Y0170334D01*
X0155680Y0164163D01*
X0155733Y0164034D01*
X0154412Y0165355D01*
X0149780Y0165355D01*
X0149780Y0166423D01*
X0148714Y0168995D01*
X0146745Y0170964D01*
X0144172Y0172030D01*
X0136187Y0172030D01*
X0133614Y0170964D01*
X0131645Y0168995D01*
X0130580Y0166423D01*
X0130580Y0163638D01*
X0131645Y0161065D01*
X0133614Y0159096D01*
X0136187Y0158030D01*
X0144172Y0158030D01*
X0144230Y0158054D01*
X0144230Y0156605D01*
X0142197Y0156605D01*
X0137980Y0152388D01*
X0137980Y0146423D01*
X0141547Y0142855D01*
X0140947Y0142855D01*
X0138480Y0140388D01*
X0138004Y0141213D01*
X0132242Y0142757D01*
X0127077Y0139774D01*
X0126338Y0137018D01*
X0125174Y0137330D01*
X0124602Y0137903D01*
X0122544Y0138755D01*
X0113045Y0138755D01*
X0111746Y0140054D01*
X0109027Y0141180D01*
X0105219Y0141180D01*
X0105644Y0142205D01*
X0108162Y0142205D01*
X0112380Y0146423D01*
X0112380Y0152388D01*
X0108162Y0156605D01*
X0102197Y0156605D01*
X0098197Y0152605D01*
X0096049Y0152605D01*
X0094530Y0151976D01*
X0094530Y0152274D01*
X0095255Y0154024D01*
X0095255Y0157286D01*
X0094006Y0160300D01*
X0091700Y0162607D01*
X0088686Y0163855D01*
X0085424Y0163855D01*
X0082410Y0162607D01*
X0080103Y0160300D01*
X0079555Y0158976D01*
X0079006Y0160300D01*
X0077080Y0162227D01*
X0077080Y0168623D01*
X0077985Y0169529D01*
X0079359Y0168155D01*
X0081430Y0168155D01*
X0081430Y0173155D01*
X0081430Y0172573D02*
X0081430Y0172573D01*
X0081430Y0170175D02*
X0081430Y0170175D01*
X0077080Y0167776D02*
X0101140Y0167776D01*
X0100580Y0165378D02*
X0077080Y0165378D01*
X0077080Y0162979D02*
X0083309Y0162979D01*
X0080384Y0160581D02*
X0078726Y0160581D01*
X0087055Y0155655D02*
X0088930Y0155655D01*
X0088930Y0141280D01*
X0096430Y0133780D01*
X0104555Y0133780D01*
X0105180Y0133155D01*
X0116430Y0133155D01*
X0116430Y0123780D01*
X0114555Y0123780D01*
X0114555Y0115655D02*
X0122680Y0115655D01*
X0125460Y0118436D01*
X0127055Y0118436D01*
X0135392Y0117408D02*
X0158870Y0117408D01*
X0159372Y0116905D02*
X0157355Y0114888D01*
X0157355Y0108923D01*
X0159678Y0106600D01*
X0158930Y0105851D01*
X0158930Y0103780D01*
X0158930Y0101709D01*
X0161859Y0098780D01*
X0163930Y0098780D01*
X0166001Y0098780D01*
X0166210Y0098990D01*
X0166645Y0097940D01*
X0167680Y0096905D01*
X0166645Y0095870D01*
X0165580Y0093298D01*
X0165580Y0092725D01*
X0163835Y0090980D01*
X0160947Y0090980D01*
X0159972Y0090005D01*
X0146874Y0090005D01*
X0144237Y0092642D01*
X0146430Y0094834D01*
X0146430Y0096905D01*
X0141430Y0096905D01*
X0141430Y0096905D01*
X0146430Y0096905D01*
X0146430Y0098976D01*
X0143501Y0101905D01*
X0141430Y0101905D01*
X0141430Y0096905D01*
X0141430Y0103780D01*
X0138585Y0106625D01*
X0127055Y0106625D01*
X0121149Y0106625D01*
X0127331Y0106901D02*
X0133192Y0106901D01*
X0133192Y0109867D01*
X0133042Y0110427D01*
X0132752Y0110928D01*
X0132383Y0111297D01*
X0133484Y0111753D01*
X0134722Y0112991D01*
X0135392Y0114608D01*
X0135392Y0122264D01*
X0134722Y0123881D01*
X0133484Y0125119D01*
X0131867Y0125788D01*
X0130917Y0125788D01*
X0131521Y0128042D01*
X0134277Y0127304D01*
X0139236Y0130167D01*
X0140947Y0128455D01*
X0146912Y0128455D01*
X0150485Y0132029D01*
X0151859Y0130655D01*
X0153930Y0130655D01*
X0156001Y0130655D01*
X0156840Y0131495D01*
X0158714Y0129621D01*
X0161100Y0128633D01*
X0157355Y0124888D01*
X0157355Y0118923D01*
X0159372Y0116905D01*
X0157476Y0115009D02*
X0135392Y0115009D01*
X0134342Y0112611D02*
X0157355Y0112611D01*
X0157355Y0110212D02*
X0133099Y0110212D01*
X0133192Y0107814D02*
X0158464Y0107814D01*
X0158930Y0105415D02*
X0133192Y0105415D01*
X0133192Y0106348D02*
X0127331Y0106348D01*
X0127331Y0106901D01*
X0133192Y0106348D02*
X0133192Y0103382D01*
X0133042Y0102823D01*
X0132858Y0102505D01*
X0133169Y0102505D01*
X0135227Y0101653D01*
X0136802Y0100077D01*
X0137166Y0099713D01*
X0139359Y0101905D01*
X0141430Y0101905D01*
X0141430Y0096905D01*
X0141430Y0096905D01*
X0141430Y0098219D02*
X0141430Y0098219D01*
X0141430Y0100618D02*
X0141430Y0100618D01*
X0141430Y0103780D02*
X0153930Y0103780D01*
X0153930Y0135655D01*
X0153930Y0130655D01*
X0153930Y0135655D01*
X0153930Y0135655D01*
X0153930Y0135655D01*
X0153930Y0140655D01*
X0155680Y0140655D01*
X0155680Y0142148D01*
X0155733Y0142276D01*
X0154412Y0140955D01*
X0148812Y0140955D01*
X0150485Y0139282D01*
X0151859Y0140655D01*
X0153930Y0140655D01*
X0153930Y0135655D01*
X0153930Y0136596D02*
X0153930Y0136596D01*
X0153930Y0138994D02*
X0153930Y0138994D01*
X0154849Y0141393D02*
X0155680Y0141393D01*
X0158630Y0146605D02*
X0158630Y0151138D01*
X0156612Y0153155D01*
X0158630Y0155173D01*
X0158630Y0159706D01*
X0158714Y0159621D01*
X0161287Y0158555D01*
X0164072Y0158555D01*
X0166645Y0159621D01*
X0167885Y0160861D01*
X0167898Y0160781D01*
X0168131Y0160063D01*
X0168474Y0159389D01*
X0168918Y0158778D01*
X0169453Y0158244D01*
X0170064Y0157800D01*
X0170737Y0157457D01*
X0171456Y0157223D01*
X0172202Y0157105D01*
X0175180Y0157105D01*
X0178157Y0157105D01*
X0178904Y0157223D01*
X0179622Y0157457D01*
X0180295Y0157800D01*
X0180907Y0158244D01*
X0181441Y0158778D01*
X0181885Y0159389D01*
X0182228Y0160063D01*
X0182461Y0160781D01*
X0182580Y0161527D01*
X0182580Y0161905D01*
X0175180Y0161905D01*
X0175180Y0161905D01*
X0175180Y0157105D01*
X0175180Y0161905D01*
X0175180Y0161905D01*
X0182580Y0161905D01*
X0182580Y0162283D01*
X0182461Y0163029D01*
X0182228Y0163748D01*
X0181885Y0164421D01*
X0181441Y0165032D01*
X0180907Y0165566D01*
X0180295Y0166011D01*
X0179622Y0166354D01*
X0178904Y0166587D01*
X0178157Y0166705D01*
X0175180Y0166705D01*
X0175180Y0161905D01*
X0190180Y0161905D01*
X0190180Y0176905D01*
X0228930Y0176905D01*
X0229145Y0176689D02*
X0227943Y0177187D01*
X0242030Y0177187D01*
X0242030Y0147855D01*
X0239072Y0147855D01*
X0234855Y0143638D01*
X0234855Y0137673D01*
X0236872Y0135655D01*
X0234855Y0133638D01*
X0234855Y0127673D01*
X0239072Y0123455D01*
X0242030Y0123455D01*
X0242030Y0107180D01*
X0237211Y0103805D01*
X0236602Y0100357D01*
X0235305Y0099059D01*
X0235305Y0106523D01*
X0234239Y0109095D01*
X0232270Y0111064D01*
X0229697Y0112130D01*
X0226912Y0112130D01*
X0224339Y0111064D01*
X0222805Y0109530D01*
X0222805Y0115898D01*
X0221869Y0118155D01*
X0221923Y0118285D01*
X0222389Y0117620D01*
X0228263Y0116584D01*
X0233149Y0120005D01*
X0234184Y0125879D01*
X0230763Y0130765D01*
X0230360Y0130836D01*
X0231114Y0131590D01*
X0232180Y0134163D01*
X0232180Y0142148D01*
X0231114Y0144720D01*
X0229145Y0146689D01*
X0226572Y0147755D01*
X0223787Y0147755D01*
X0221214Y0146689D01*
X0219245Y0144720D01*
X0218180Y0142148D01*
X0218180Y0134163D01*
X0218462Y0133481D01*
X0217197Y0134005D01*
X0214487Y0134005D01*
X0213714Y0135870D01*
X0212679Y0136905D01*
X0213714Y0137940D01*
X0214780Y0140513D01*
X0214780Y0143298D01*
X0214102Y0144934D01*
X0214412Y0144805D01*
X0217197Y0144805D01*
X0219770Y0145871D01*
X0221739Y0147840D01*
X0222805Y0150413D01*
X0222805Y0158398D01*
X0222522Y0159079D01*
X0223787Y0158555D01*
X0226572Y0158555D01*
X0229145Y0159621D01*
X0231114Y0161590D01*
X0232180Y0164163D01*
X0232180Y0172148D01*
X0231114Y0174720D01*
X0229145Y0176689D01*
X0230862Y0174972D02*
X0242030Y0174972D01*
X0242030Y0172573D02*
X0232003Y0172573D01*
X0232180Y0170175D02*
X0242030Y0170175D01*
X0242030Y0167776D02*
X0232180Y0167776D01*
X0232180Y0165378D02*
X0242030Y0165378D01*
X0242030Y0162979D02*
X0231689Y0162979D01*
X0230105Y0160581D02*
X0242030Y0160581D01*
X0242030Y0158182D02*
X0222805Y0158182D01*
X0222805Y0155784D02*
X0242030Y0155784D01*
X0242030Y0153385D02*
X0222805Y0153385D01*
X0222805Y0150987D02*
X0242030Y0150987D01*
X0242030Y0148588D02*
X0222049Y0148588D01*
X0220715Y0146190D02*
X0220089Y0146190D01*
X0218860Y0143791D02*
X0214575Y0143791D01*
X0214780Y0141393D02*
X0218180Y0141393D01*
X0218180Y0138994D02*
X0214151Y0138994D01*
X0212989Y0136596D02*
X0218180Y0136596D01*
X0218180Y0134197D02*
X0214407Y0134197D01*
X0231200Y0131799D02*
X0234855Y0131799D01*
X0234855Y0129400D02*
X0231719Y0129400D01*
X0233399Y0127002D02*
X0235526Y0127002D01*
X0233959Y0124603D02*
X0237924Y0124603D01*
X0242030Y0122205D02*
X0233536Y0122205D01*
X0232864Y0119806D02*
X0242030Y0119806D01*
X0242030Y0117408D02*
X0229439Y0117408D01*
X0223592Y0117408D02*
X0222179Y0117408D01*
X0222805Y0115009D02*
X0242030Y0115009D01*
X0242030Y0112611D02*
X0222805Y0112611D01*
X0222805Y0110212D02*
X0223487Y0110212D01*
X0221305Y0104906D02*
X0221305Y0098538D01*
X0222370Y0095965D01*
X0224339Y0093996D01*
X0226912Y0092930D01*
X0229176Y0092930D01*
X0225001Y0088755D01*
X0211418Y0088755D01*
X0211441Y0088778D01*
X0211885Y0089389D01*
X0212228Y0090063D01*
X0212461Y0090781D01*
X0212580Y0091527D01*
X0212580Y0091905D01*
X0205180Y0091905D01*
X0205180Y0091905D01*
X0212580Y0091905D01*
X0212580Y0092283D01*
X0212461Y0093029D01*
X0212228Y0093748D01*
X0211885Y0094421D01*
X0211441Y0095032D01*
X0210907Y0095566D01*
X0210295Y0096011D01*
X0209622Y0096354D01*
X0208904Y0096587D01*
X0208157Y0096705D01*
X0205180Y0096705D01*
X0205180Y0091905D01*
X0197680Y0091905D01*
X0197680Y0059405D01*
X0187680Y0059405D01*
X0187680Y0059405D01*
X0194880Y0059405D01*
X0194880Y0058933D01*
X0194756Y0057998D01*
X0194512Y0057086D01*
X0194151Y0056214D01*
X0193679Y0055396D01*
X0193104Y0054648D01*
X0192437Y0053980D01*
X0191688Y0053406D01*
X0190871Y0052934D01*
X0189999Y0052573D01*
X0189087Y0052328D01*
X0188152Y0052205D01*
X0187680Y0052205D01*
X0187680Y0059405D01*
X0187680Y0059405D01*
X0194880Y0059405D01*
X0194880Y0059877D01*
X0194756Y0060813D01*
X0194512Y0061725D01*
X0194151Y0062596D01*
X0193679Y0063414D01*
X0193104Y0064163D01*
X0192437Y0064830D01*
X0191688Y0065405D01*
X0190871Y0065877D01*
X0189999Y0066238D01*
X0189087Y0066482D01*
X0188152Y0066605D01*
X0187680Y0066605D01*
X0187680Y0059405D01*
X0187680Y0059405D01*
X0187680Y0052205D01*
X0187208Y0052205D01*
X0186272Y0052328D01*
X0185360Y0052573D01*
X0184488Y0052934D01*
X0183671Y0053406D01*
X0182922Y0053980D01*
X0182255Y0054648D01*
X0181680Y0055396D01*
X0181208Y0056214D01*
X0180847Y0057086D01*
X0180651Y0057819D01*
X0176912Y0054080D01*
X0175258Y0054080D01*
X0176745Y0053464D01*
X0178714Y0051495D01*
X0179780Y0048923D01*
X0179780Y0046138D01*
X0179663Y0045855D01*
X0193077Y0045855D01*
X0192898Y0046406D01*
X0192780Y0047152D01*
X0192780Y0047530D01*
X0200179Y0047530D01*
X0200179Y0047530D01*
X0192780Y0047530D01*
X0192780Y0047908D01*
X0192898Y0048654D01*
X0193131Y0049373D01*
X0193474Y0050046D01*
X0193918Y0050657D01*
X0194453Y0051191D01*
X0195064Y0051636D01*
X0195737Y0051979D01*
X0196456Y0052212D01*
X0197202Y0052330D01*
X0200180Y0052330D01*
X0200180Y0047530D01*
X0200180Y0047530D01*
X0207580Y0047530D01*
X0207580Y0047152D01*
X0207461Y0046406D01*
X0207282Y0045855D01*
X0222075Y0045855D01*
X0220003Y0047306D01*
X0218967Y0053180D01*
X0222389Y0058066D01*
X0228263Y0059101D01*
X0233149Y0055680D01*
X0234184Y0049806D01*
X0231418Y0045855D01*
X0242030Y0045855D01*
X0242030Y0068506D01*
X0237211Y0071880D01*
X0236175Y0077754D01*
X0239596Y0082640D01*
X0242030Y0083069D01*
X0242030Y0089945D01*
X0232710Y0080625D01*
X0234239Y0079095D01*
X0235305Y0076523D01*
X0235305Y0068538D01*
X0234239Y0065965D01*
X0232270Y0063996D01*
X0229697Y0062930D01*
X0226912Y0062930D01*
X0224339Y0063996D01*
X0222370Y0065965D01*
X0222184Y0066415D01*
X0221739Y0065340D01*
X0219770Y0063371D01*
X0217197Y0062305D01*
X0214412Y0062305D01*
X0211839Y0063371D01*
X0209870Y0065340D01*
X0209373Y0066541D01*
X0208787Y0065955D01*
X0202822Y0065955D01*
X0198605Y0070173D01*
X0198605Y0076138D01*
X0200622Y0078155D01*
X0198605Y0080173D01*
X0198605Y0086138D01*
X0200198Y0087731D01*
X0200064Y0087800D01*
X0199453Y0088244D01*
X0198918Y0088778D01*
X0198474Y0089389D01*
X0198131Y0090063D01*
X0197898Y0090781D01*
X0197780Y0091527D01*
X0197780Y0091905D01*
X0205179Y0091905D01*
X0205179Y0091905D01*
X0197780Y0091905D01*
X0197780Y0092283D01*
X0197898Y0093029D01*
X0198131Y0093748D01*
X0198474Y0094421D01*
X0198918Y0095032D01*
X0199453Y0095566D01*
X0200064Y0096011D01*
X0200737Y0096354D01*
X0201456Y0096587D01*
X0202202Y0096705D01*
X0205180Y0096705D01*
X0205180Y0091905D01*
X0205180Y0091905D01*
X0205180Y0093422D02*
X0205180Y0093422D01*
X0205180Y0095821D02*
X0205180Y0095821D01*
X0205180Y0097105D02*
X0205180Y0101905D01*
X0205180Y0101905D01*
X0212580Y0101905D01*
X0212580Y0101527D01*
X0212461Y0100781D01*
X0212228Y0100063D01*
X0211885Y0099389D01*
X0211441Y0098778D01*
X0210907Y0098244D01*
X0210295Y0097800D01*
X0209622Y0097457D01*
X0208904Y0097223D01*
X0208157Y0097105D01*
X0205180Y0097105D01*
X0205180Y0101905D01*
X0205180Y0101905D01*
X0212580Y0101905D01*
X0212580Y0102283D01*
X0212461Y0103029D01*
X0212430Y0103126D01*
X0214412Y0102305D01*
X0217197Y0102305D01*
X0219770Y0103371D01*
X0221305Y0104906D01*
X0221305Y0103016D02*
X0218914Y0103016D01*
X0221305Y0100618D02*
X0212408Y0100618D01*
X0212463Y0103016D02*
X0212695Y0103016D01*
X0210873Y0098219D02*
X0221436Y0098219D01*
X0222514Y0095821D02*
X0210556Y0095821D01*
X0212334Y0093422D02*
X0225724Y0093422D01*
X0227270Y0091024D02*
X0212500Y0091024D01*
X0205180Y0097105D02*
X0202202Y0097105D01*
X0201456Y0097223D01*
X0200737Y0097457D01*
X0200064Y0097800D01*
X0199453Y0098244D01*
X0198918Y0098778D01*
X0198474Y0099389D01*
X0198131Y0100063D01*
X0197898Y0100781D01*
X0197780Y0101527D01*
X0197780Y0101905D01*
X0205179Y0101905D01*
X0205179Y0101905D01*
X0197780Y0101905D01*
X0197780Y0102283D01*
X0197898Y0103029D01*
X0198131Y0103748D01*
X0198474Y0104421D01*
X0198918Y0105032D01*
X0199453Y0105566D01*
X0199503Y0105603D01*
X0198614Y0105971D01*
X0196645Y0107940D01*
X0195580Y0110513D01*
X0195580Y0113298D01*
X0196645Y0115870D01*
X0197680Y0116905D01*
X0196645Y0117940D01*
X0195580Y0120513D01*
X0195580Y0123298D01*
X0196645Y0125870D01*
X0197680Y0126905D01*
X0196645Y0127940D01*
X0195580Y0130513D01*
X0195580Y0133298D01*
X0196645Y0135870D01*
X0197680Y0136905D01*
X0196645Y0137940D01*
X0195580Y0140513D01*
X0195580Y0143298D01*
X0196645Y0145870D01*
X0197680Y0146905D01*
X0196645Y0147940D01*
X0195580Y0150513D01*
X0195580Y0153298D01*
X0196645Y0155870D01*
X0198614Y0157839D01*
X0199503Y0158207D01*
X0199453Y0158244D01*
X0198918Y0158778D01*
X0198474Y0159389D01*
X0198131Y0160063D01*
X0197898Y0160781D01*
X0197780Y0161527D01*
X0197780Y0161905D01*
X0205179Y0161905D01*
X0205179Y0161905D01*
X0197780Y0161905D01*
X0197780Y0162283D01*
X0197898Y0163029D01*
X0198131Y0163748D01*
X0198474Y0164421D01*
X0198918Y0165032D01*
X0199453Y0165566D01*
X0200064Y0166011D01*
X0200737Y0166354D01*
X0201456Y0166587D01*
X0202202Y0166705D01*
X0205180Y0166705D01*
X0205180Y0161905D01*
X0206430Y0160655D01*
X0205180Y0161905D02*
X0190180Y0161905D01*
X0190180Y0151905D01*
X0175180Y0151905D01*
X0175180Y0151905D01*
X0182580Y0151905D01*
X0182580Y0151527D01*
X0182461Y0150781D01*
X0182228Y0150063D01*
X0181885Y0149389D01*
X0181441Y0148778D01*
X0180907Y0148244D01*
X0180856Y0148207D01*
X0181745Y0147839D01*
X0183714Y0145870D01*
X0184780Y0143298D01*
X0184780Y0140513D01*
X0183714Y0137940D01*
X0182679Y0136905D01*
X0183714Y0135870D01*
X0184780Y0133298D01*
X0184780Y0130513D01*
X0183714Y0127940D01*
X0182679Y0126905D01*
X0183714Y0125870D01*
X0184780Y0123298D01*
X0184780Y0120513D01*
X0183714Y0117940D01*
X0182679Y0116905D01*
X0183714Y0115870D01*
X0184780Y0113298D01*
X0184780Y0110513D01*
X0183714Y0107940D01*
X0182679Y0106905D01*
X0183714Y0105870D01*
X0184780Y0103298D01*
X0184780Y0100513D01*
X0183714Y0097940D01*
X0182679Y0096905D01*
X0183714Y0095870D01*
X0184780Y0093298D01*
X0184780Y0091475D01*
X0190232Y0086022D01*
X0193004Y0084874D01*
X0195649Y0082230D01*
X0197080Y0078775D01*
X0197080Y0075035D01*
X0195649Y0071581D01*
X0193004Y0068936D01*
X0189549Y0067505D01*
X0185810Y0067505D01*
X0182355Y0068936D01*
X0181130Y0070162D01*
X0181130Y0066423D01*
X0180049Y0065343D01*
X0181130Y0064263D01*
X0181130Y0062407D01*
X0181208Y0062596D01*
X0181680Y0063414D01*
X0182255Y0064163D01*
X0182922Y0064830D01*
X0183671Y0065405D01*
X0184488Y0065877D01*
X0185360Y0066238D01*
X0186272Y0066482D01*
X0187208Y0066605D01*
X0187680Y0066605D01*
X0187680Y0059405D01*
X0187680Y0059843D02*
X0187680Y0059843D01*
X0187680Y0057445D02*
X0187680Y0057445D01*
X0187680Y0055046D02*
X0187680Y0055046D01*
X0187680Y0052648D02*
X0187680Y0052648D01*
X0190180Y0052648D02*
X0219061Y0052648D01*
X0219484Y0050249D02*
X0206737Y0050249D01*
X0206885Y0050046D02*
X0206441Y0050657D01*
X0205907Y0051191D01*
X0205295Y0051636D01*
X0204622Y0051979D01*
X0203904Y0052212D01*
X0203157Y0052330D01*
X0200180Y0052330D01*
X0200180Y0047530D01*
X0207580Y0047530D01*
X0207580Y0047908D01*
X0207461Y0048654D01*
X0207228Y0049373D01*
X0206885Y0050046D01*
X0207580Y0047851D02*
X0219907Y0047851D01*
X0220274Y0055046D02*
X0193410Y0055046D01*
X0194608Y0057445D02*
X0221954Y0057445D01*
X0230629Y0057445D02*
X0242030Y0057445D01*
X0242030Y0059843D02*
X0194880Y0059843D01*
X0194298Y0062242D02*
X0242030Y0062242D01*
X0242030Y0064640D02*
X0232914Y0064640D01*
X0234684Y0067039D02*
X0242030Y0067039D01*
X0240699Y0069437D02*
X0235305Y0069437D01*
X0235305Y0071836D02*
X0237274Y0071836D01*
X0236795Y0074234D02*
X0235305Y0074234D01*
X0235259Y0076633D02*
X0236373Y0076633D01*
X0237069Y0079031D02*
X0234265Y0079031D01*
X0233515Y0081430D02*
X0238748Y0081430D01*
X0235913Y0083828D02*
X0242030Y0083828D01*
X0242030Y0086227D02*
X0238312Y0086227D01*
X0240710Y0088625D02*
X0242030Y0088625D01*
X0243783Y0099618D02*
X0227321Y0083155D01*
X0205805Y0083155D01*
X0198605Y0083828D02*
X0194050Y0083828D01*
X0195980Y0081430D02*
X0198605Y0081430D01*
X0199746Y0079031D02*
X0196973Y0079031D01*
X0197080Y0076633D02*
X0199100Y0076633D01*
X0198605Y0074234D02*
X0196748Y0074234D01*
X0195754Y0071836D02*
X0198605Y0071836D01*
X0199340Y0069437D02*
X0193505Y0069437D01*
X0192627Y0064640D02*
X0210570Y0064640D01*
X0221039Y0064640D02*
X0223695Y0064640D01*
X0233260Y0055046D02*
X0242030Y0055046D01*
X0242030Y0052648D02*
X0233683Y0052648D01*
X0234106Y0050249D02*
X0242030Y0050249D01*
X0242030Y0047851D02*
X0232815Y0047851D01*
X0200180Y0047851D02*
X0200180Y0047851D01*
X0200180Y0047530D02*
X0200180Y0047530D01*
X0200180Y0056905D01*
X0197680Y0059405D01*
X0187680Y0062242D02*
X0187680Y0062242D01*
X0187680Y0064640D02*
X0187680Y0064640D01*
X0182732Y0064640D02*
X0180752Y0064640D01*
X0181130Y0067039D02*
X0201739Y0067039D01*
X0187680Y0076905D02*
X0187680Y0080655D01*
X0176430Y0091905D01*
X0175180Y0091905D01*
X0172680Y0091905D01*
X0165180Y0084405D01*
X0163930Y0084405D01*
X0163879Y0091024D02*
X0145855Y0091024D01*
X0145018Y0093422D02*
X0165631Y0093422D01*
X0166625Y0095821D02*
X0146430Y0095821D01*
X0146430Y0098219D02*
X0166530Y0098219D01*
X0163930Y0098780D02*
X0163930Y0103780D01*
X0163930Y0103780D01*
X0153930Y0103780D01*
X0158930Y0103780D02*
X0163929Y0103780D01*
X0163929Y0103780D01*
X0158930Y0103780D01*
X0158930Y0103016D02*
X0133094Y0103016D01*
X0136261Y0100618D02*
X0138071Y0100618D01*
X0144788Y0100618D02*
X0160021Y0100618D01*
X0163930Y0100618D02*
X0163930Y0100618D01*
X0163930Y0098780D02*
X0163930Y0103780D01*
X0163930Y0103016D02*
X0163930Y0103016D01*
X0183903Y0105415D02*
X0199301Y0105415D01*
X0197896Y0103016D02*
X0184780Y0103016D01*
X0184780Y0100618D02*
X0197951Y0100618D01*
X0199486Y0098219D02*
X0183830Y0098219D01*
X0183734Y0095821D02*
X0199803Y0095821D01*
X0198026Y0093422D02*
X0184728Y0093422D01*
X0185230Y0091024D02*
X0197859Y0091024D01*
X0197680Y0091905D02*
X0190180Y0099405D01*
X0190180Y0151905D01*
X0195580Y0150987D02*
X0182494Y0150987D01*
X0182580Y0151905D02*
X0182580Y0152283D01*
X0182461Y0153029D01*
X0182228Y0153748D01*
X0181885Y0154421D01*
X0181441Y0155032D01*
X0180907Y0155566D01*
X0180295Y0156011D01*
X0179622Y0156354D01*
X0178904Y0156587D01*
X0178157Y0156705D01*
X0175180Y0156705D01*
X0175180Y0151905D01*
X0182580Y0151905D01*
X0182346Y0153385D02*
X0195616Y0153385D01*
X0196609Y0155784D02*
X0180607Y0155784D01*
X0180822Y0158182D02*
X0199442Y0158182D01*
X0197963Y0160581D02*
X0182396Y0160581D01*
X0182469Y0162979D02*
X0197890Y0162979D01*
X0199264Y0165378D02*
X0181095Y0165378D01*
X0175180Y0165378D02*
X0175180Y0165378D01*
X0175180Y0166705D02*
X0172202Y0166705D01*
X0171456Y0166587D01*
X0170737Y0166354D01*
X0170064Y0166011D01*
X0169680Y0165731D01*
X0169680Y0172148D01*
X0168614Y0174720D01*
X0166645Y0176689D01*
X0165443Y0177187D01*
X0222417Y0177187D01*
X0221214Y0176689D01*
X0219245Y0174720D01*
X0218180Y0172148D01*
X0218180Y0164163D01*
X0218462Y0163481D01*
X0217197Y0164005D01*
X0214412Y0164005D01*
X0212413Y0163177D01*
X0212228Y0163748D01*
X0211885Y0164421D01*
X0211441Y0165032D01*
X0210907Y0165566D01*
X0210295Y0166011D01*
X0209622Y0166354D01*
X0208904Y0166587D01*
X0208157Y0166705D01*
X0205180Y0166705D01*
X0205180Y0161905D01*
X0205180Y0161905D01*
X0205180Y0162979D02*
X0205180Y0162979D01*
X0205180Y0165378D02*
X0205180Y0165378D01*
X0211095Y0165378D02*
X0218180Y0165378D01*
X0218180Y0167776D02*
X0169680Y0167776D01*
X0169680Y0170175D02*
X0218180Y0170175D01*
X0218356Y0172573D02*
X0169503Y0172573D01*
X0168362Y0174972D02*
X0219497Y0174972D01*
X0190180Y0176905D02*
X0155180Y0176905D01*
X0152680Y0174405D01*
X0152680Y0169405D01*
X0152680Y0174405D01*
X0152680Y0174405D01*
X0152679Y0174405D02*
X0147680Y0174405D01*
X0152679Y0174405D01*
X0152679Y0174405D01*
X0152680Y0172573D02*
X0152680Y0172573D01*
X0152680Y0170175D02*
X0152680Y0170175D01*
X0155520Y0170175D02*
X0155680Y0170175D01*
X0155680Y0167776D02*
X0149219Y0167776D01*
X0149780Y0165378D02*
X0155680Y0165378D01*
X0149839Y0170175D02*
X0147534Y0170175D01*
X0147680Y0172573D02*
X0129880Y0172573D01*
X0129880Y0174972D02*
X0147680Y0174972D01*
X0132825Y0170175D02*
X0128632Y0170175D01*
X0126233Y0167776D02*
X0131140Y0167776D01*
X0130580Y0165378D02*
X0119780Y0165378D01*
X0119507Y0162979D02*
X0130852Y0162979D01*
X0132130Y0160581D02*
X0118230Y0160581D01*
X0114539Y0158182D02*
X0135820Y0158182D01*
X0138977Y0153385D02*
X0111382Y0153385D01*
X0112380Y0150987D02*
X0137980Y0150987D01*
X0137980Y0148588D02*
X0112380Y0148588D01*
X0112146Y0146190D02*
X0138213Y0146190D01*
X0140611Y0143791D02*
X0109748Y0143791D01*
X0105307Y0141393D02*
X0129880Y0141393D01*
X0126868Y0138994D02*
X0112806Y0138994D01*
X0116430Y0133155D02*
X0121430Y0133155D01*
X0124555Y0130030D01*
X0131242Y0127002D02*
X0159469Y0127002D01*
X0159247Y0129400D02*
X0147857Y0129400D01*
X0150255Y0131799D02*
X0150715Y0131799D01*
X0153930Y0131799D02*
X0153930Y0131799D01*
X0153930Y0134197D02*
X0153930Y0134197D01*
X0140002Y0129400D02*
X0137908Y0129400D01*
X0134000Y0124603D02*
X0157355Y0124603D01*
X0157355Y0122205D02*
X0135392Y0122205D01*
X0135392Y0119806D02*
X0157355Y0119806D01*
X0183181Y0117408D02*
X0197178Y0117408D01*
X0196289Y0115009D02*
X0184071Y0115009D01*
X0184780Y0112611D02*
X0195580Y0112611D01*
X0195704Y0110212D02*
X0184655Y0110212D01*
X0183587Y0107814D02*
X0196772Y0107814D01*
X0190805Y0101905D02*
X0205180Y0101905D01*
X0205180Y0100618D02*
X0205180Y0100618D01*
X0205180Y0098219D02*
X0205180Y0098219D01*
X0199071Y0088625D02*
X0187629Y0088625D01*
X0190027Y0086227D02*
X0198694Y0086227D01*
X0181854Y0069437D02*
X0181130Y0069437D01*
X0180751Y0057445D02*
X0180277Y0057445D01*
X0181949Y0055046D02*
X0177878Y0055046D01*
X0177562Y0052648D02*
X0185179Y0052648D01*
X0179230Y0050249D02*
X0193622Y0050249D01*
X0192780Y0047851D02*
X0179780Y0047851D01*
X0200180Y0050249D02*
X0200180Y0050249D01*
X0159981Y0055046D02*
X0123830Y0055046D01*
X0123830Y0052648D02*
X0126365Y0052648D01*
X0124230Y0050249D02*
X0123830Y0050249D01*
X0123830Y0047851D02*
X0124230Y0047851D01*
X0123630Y0057445D02*
X0157583Y0057445D01*
X0156365Y0052648D02*
X0136494Y0052648D01*
X0138630Y0050249D02*
X0154230Y0050249D01*
X0154230Y0047851D02*
X0138630Y0047851D01*
X0134412Y0059080D02*
X0128447Y0059080D01*
X0127367Y0060160D01*
X0126287Y0059080D01*
X0123630Y0059080D01*
X0127050Y0059843D02*
X0127684Y0059843D01*
X0090805Y0100030D02*
X0088734Y0100030D01*
X0085805Y0102959D01*
X0085805Y0105030D01*
X0090804Y0105030D01*
X0090804Y0105030D01*
X0085805Y0105030D01*
X0085805Y0107101D01*
X0088734Y0110030D01*
X0090805Y0110030D01*
X0090805Y0105030D01*
X0090805Y0105030D01*
X0090805Y0105415D02*
X0090805Y0105415D01*
X0090805Y0103016D02*
X0090805Y0103016D01*
X0090805Y0100618D02*
X0090805Y0100618D01*
X0088146Y0100618D02*
X0051430Y0100618D01*
X0051430Y0103016D02*
X0056132Y0103016D01*
X0054392Y0105415D02*
X0051430Y0105415D01*
X0051430Y0107814D02*
X0053651Y0107814D01*
X0053651Y0110212D02*
X0051430Y0110212D01*
X0074070Y0103016D02*
X0085805Y0103016D01*
X0085805Y0105415D02*
X0075810Y0105415D01*
X0076551Y0107814D02*
X0086517Y0107814D01*
X0090805Y0107814D02*
X0090805Y0107814D01*
X0095092Y0107814D02*
X0103605Y0107814D01*
X0103605Y0105415D02*
X0095805Y0105415D01*
X0095805Y0103016D02*
X0103605Y0103016D01*
X0099815Y0110212D02*
X0076551Y0110212D01*
X0082107Y0112611D02*
X0097417Y0112611D01*
X0097355Y0115009D02*
X0083330Y0115009D01*
X0083330Y0117408D02*
X0087602Y0117408D01*
X0085191Y0119806D02*
X0083330Y0119806D01*
X0083330Y0122205D02*
X0084198Y0122205D01*
X0084155Y0124603D02*
X0083330Y0124603D01*
X0083330Y0127002D02*
X0084879Y0127002D01*
X0083330Y0129400D02*
X0086709Y0129400D01*
X0083330Y0131799D02*
X0090492Y0131799D01*
X0088093Y0134197D02*
X0083330Y0134197D01*
X0083330Y0136596D02*
X0085695Y0136596D01*
X0083815Y0138994D02*
X0083330Y0138994D01*
X0083330Y0141393D02*
X0083330Y0141393D01*
X0083330Y0143791D02*
X0083330Y0143791D01*
X0083330Y0146190D02*
X0083330Y0146190D01*
X0083330Y0148323D02*
X0083330Y0148323D01*
X0094990Y0153385D02*
X0098977Y0153385D01*
X0101376Y0155784D02*
X0095255Y0155784D01*
X0094883Y0158182D02*
X0105820Y0158182D01*
X0108983Y0155784D02*
X0141376Y0155784D01*
X0156842Y0153385D02*
X0168013Y0153385D01*
X0167898Y0153029D02*
X0167780Y0152283D01*
X0167780Y0151905D01*
X0167780Y0151527D01*
X0167898Y0150781D01*
X0168131Y0150063D01*
X0168474Y0149389D01*
X0168918Y0148778D01*
X0169453Y0148244D01*
X0169503Y0148207D01*
X0168614Y0147839D01*
X0167055Y0146280D01*
X0166645Y0146689D01*
X0164072Y0147755D01*
X0161287Y0147755D01*
X0158714Y0146689D01*
X0158630Y0146605D01*
X0158630Y0148588D02*
X0169108Y0148588D01*
X0167865Y0150987D02*
X0158630Y0150987D01*
X0158630Y0155784D02*
X0169752Y0155784D01*
X0169453Y0155566D02*
X0168918Y0155032D01*
X0168474Y0154421D01*
X0168131Y0153748D01*
X0167898Y0153029D01*
X0167780Y0151905D02*
X0175179Y0151905D01*
X0167780Y0151905D01*
X0169453Y0155566D02*
X0170064Y0156011D01*
X0170737Y0156354D01*
X0171456Y0156587D01*
X0172202Y0156705D01*
X0175180Y0156705D01*
X0175180Y0151905D01*
X0175180Y0151905D01*
X0175179Y0151905D02*
X0175179Y0151905D01*
X0175180Y0153385D02*
X0175180Y0153385D01*
X0175180Y0155784D02*
X0175180Y0155784D01*
X0175180Y0158182D02*
X0175180Y0158182D01*
X0175180Y0160581D02*
X0175180Y0160581D01*
X0175180Y0161905D02*
X0175180Y0166705D01*
X0175180Y0162979D02*
X0175180Y0162979D01*
X0175180Y0161905D02*
X0175180Y0161905D01*
X0169538Y0158182D02*
X0158630Y0158182D01*
X0167605Y0160581D02*
X0167963Y0160581D01*
X0181251Y0148588D02*
X0196377Y0148588D01*
X0196965Y0146190D02*
X0183395Y0146190D01*
X0184575Y0143791D02*
X0195784Y0143791D01*
X0195580Y0141393D02*
X0184780Y0141393D01*
X0184151Y0138994D02*
X0196209Y0138994D01*
X0197371Y0136596D02*
X0182989Y0136596D01*
X0184407Y0134197D02*
X0195952Y0134197D01*
X0195580Y0131799D02*
X0184780Y0131799D01*
X0184319Y0129400D02*
X0196041Y0129400D01*
X0197584Y0127002D02*
X0182775Y0127002D01*
X0184239Y0124603D02*
X0196120Y0124603D01*
X0195580Y0122205D02*
X0184780Y0122205D01*
X0184487Y0119806D02*
X0195872Y0119806D01*
X0232180Y0134197D02*
X0235414Y0134197D01*
X0235932Y0136596D02*
X0232180Y0136596D01*
X0232180Y0138994D02*
X0234855Y0138994D01*
X0234855Y0141393D02*
X0232180Y0141393D01*
X0231499Y0143791D02*
X0235008Y0143791D01*
X0237407Y0146190D02*
X0229645Y0146190D01*
X0233122Y0110212D02*
X0242030Y0110212D01*
X0242030Y0107814D02*
X0234770Y0107814D01*
X0235305Y0105415D02*
X0239510Y0105415D01*
X0237071Y0103016D02*
X0235305Y0103016D01*
X0235305Y0100618D02*
X0236649Y0100618D01*
X0139485Y0141393D02*
X0137333Y0141393D01*
X0102130Y0160581D02*
X0093726Y0160581D01*
X0090800Y0162979D02*
X0100852Y0162979D01*
X0101935Y0170175D02*
X0102825Y0170175D01*
X0103393Y0172573D02*
X0115480Y0172573D01*
X0115480Y0174972D02*
X0103665Y0174972D01*
X0097680Y0174405D02*
X0090180Y0174405D01*
X0088930Y0173155D01*
X0086430Y0172573D02*
X0091966Y0172573D01*
X0091680Y0174405D02*
X0097679Y0174405D01*
X0097679Y0174405D01*
X0091680Y0174405D01*
X0091695Y0174972D02*
X0086430Y0174972D01*
X0085520Y0170175D02*
X0093425Y0170175D01*
X0097680Y0170175D02*
X0097680Y0170175D01*
X0097680Y0172573D02*
X0097680Y0172573D01*
X0057807Y0093422D02*
X0051430Y0093422D01*
X0051430Y0091024D02*
X0056183Y0091024D01*
X0055854Y0088625D02*
X0051430Y0088625D01*
X0051430Y0086227D02*
X0056612Y0086227D01*
D23*
X0076430Y0073780D02*
X0090805Y0088155D01*
X0090805Y0105030D01*
X0108930Y0085655D02*
X0120180Y0096905D01*
X0121430Y0096905D01*
X0108930Y0085655D02*
X0108930Y0065655D01*
X0116430Y0058155D01*
X0116430Y0050655D01*
X0098930Y0085655D02*
X0096430Y0085655D01*
X0088930Y0085655D01*
D24*
X0118930Y0168155D02*
X0130805Y0168155D01*
X0137055Y0174405D01*
X0152680Y0174405D01*
X0118930Y0168155D02*
X0112680Y0174405D01*
X0097680Y0174405D01*
M02*
