G75*
%MOIN*%
%OFA0B0*%
%FSLAX25Y25*%
%IPPOS*%
%LPD*%
%AMOC8*
5,1,8,0,0,1.08239X$1,22.5*
%
%ADD10R,0.02362X0.02362*%
%ADD11OC8,0.05200*%
%ADD12C,0.05200*%
%ADD13OC8,0.06300*%
%ADD14C,0.06300*%
%ADD15OC8,0.05600*%
%ADD16C,0.07600*%
%ADD17C,0.01120*%
%ADD18C,0.05200*%
%ADD19R,0.06299X0.05118*%
%ADD20R,0.08661X0.02362*%
%ADD21R,0.05906X0.07874*%
%ADD22C,0.07050*%
%ADD23R,0.05118X0.06299*%
%ADD24R,0.05906X0.05118*%
%ADD25R,0.02756X0.03543*%
%ADD26C,0.06000*%
%ADD27R,0.04600X0.06300*%
%ADD28R,0.07087X0.02362*%
%ADD29R,0.03937X0.05512*%
%ADD30R,0.05118X0.05906*%
%ADD31R,0.06299X0.03543*%
%ADD32R,0.03600X0.02100*%
%ADD33R,0.05512X0.03937*%
%ADD34R,0.07874X0.05906*%
%ADD35R,0.04724X0.03150*%
%ADD36C,0.10000*%
%ADD37C,0.05600*%
%ADD38C,0.02400*%
%ADD39C,0.01600*%
D10*
X0064599Y0048155D03*
X0073260Y0048155D03*
D11*
X0059930Y0065030D03*
D12*
X0067930Y0065030D03*
D13*
X0098930Y0085655D03*
D14*
X0108930Y0085655D03*
D15*
X0125180Y0085030D03*
X0135180Y0085030D03*
X0141430Y0096905D03*
X0121430Y0096905D03*
X0110805Y0105030D03*
X0114555Y0115655D03*
X0104555Y0115655D03*
X0090805Y0105030D03*
X0076430Y0073780D03*
X0080180Y0064405D03*
X0080180Y0054405D03*
X0078930Y0048155D03*
X0058930Y0048155D03*
X0093305Y0066280D03*
X0123305Y0066280D03*
X0131430Y0066280D03*
X0151430Y0066280D03*
X0163930Y0061280D03*
X0173930Y0061280D03*
X0173930Y0069405D03*
X0173930Y0079405D03*
X0163930Y0083780D03*
X0163930Y0103780D03*
X0164555Y0111905D03*
X0164555Y0121905D03*
X0153930Y0135655D03*
X0143930Y0135655D03*
X0151430Y0148155D03*
X0145180Y0149405D03*
X0151430Y0158155D03*
X0152680Y0174405D03*
X0122680Y0174405D03*
X0105180Y0149405D03*
X0081430Y0173155D03*
X0071430Y0173155D03*
X0205805Y0083155D03*
X0205805Y0073155D03*
X0161430Y0047530D03*
X0131430Y0047530D03*
X0242055Y0130655D03*
X0242055Y0140655D03*
D16*
X0097680Y0144405D03*
X0087055Y0155655D03*
X0072055Y0155655D03*
X0060180Y0143155D03*
X0060180Y0173155D03*
X0097680Y0174405D03*
D17*
X0131417Y0135273D02*
X0130857Y0134713D01*
X0131338Y0136506D01*
X0132943Y0137433D01*
X0134736Y0136952D01*
X0135663Y0135347D01*
X0135182Y0133554D01*
X0133577Y0132627D01*
X0131784Y0133108D01*
X0130857Y0134713D01*
X0131759Y0134832D01*
X0132059Y0135952D01*
X0133062Y0136531D01*
X0134182Y0136231D01*
X0134761Y0135228D01*
X0134461Y0134108D01*
X0133458Y0133529D01*
X0132338Y0133829D01*
X0131759Y0134832D01*
X0132660Y0134951D01*
X0132780Y0135399D01*
X0133181Y0135630D01*
X0133629Y0135510D01*
X0133860Y0135109D01*
X0133740Y0134661D01*
X0133339Y0134430D01*
X0132891Y0134550D01*
X0132660Y0134951D01*
X0122756Y0130273D02*
X0122196Y0129713D01*
X0122677Y0131506D01*
X0124282Y0132433D01*
X0126075Y0131952D01*
X0127002Y0130347D01*
X0126521Y0128554D01*
X0124916Y0127627D01*
X0123123Y0128108D01*
X0122196Y0129713D01*
X0123098Y0129832D01*
X0123398Y0130952D01*
X0124401Y0131531D01*
X0125521Y0131231D01*
X0126100Y0130228D01*
X0125800Y0129108D01*
X0124797Y0128529D01*
X0123677Y0128829D01*
X0123098Y0129832D01*
X0123999Y0129951D01*
X0124119Y0130399D01*
X0124520Y0130630D01*
X0124968Y0130510D01*
X0125199Y0130109D01*
X0125079Y0129661D01*
X0124678Y0129430D01*
X0124230Y0129550D01*
X0123999Y0129951D01*
X0226611Y0125998D02*
X0226051Y0126558D01*
X0227879Y0126236D01*
X0228942Y0124717D01*
X0228620Y0122889D01*
X0227101Y0121826D01*
X0225273Y0122148D01*
X0224210Y0123667D01*
X0224532Y0125495D01*
X0226051Y0126558D01*
X0226248Y0125670D01*
X0227390Y0125469D01*
X0228054Y0124520D01*
X0227853Y0123378D01*
X0226904Y0122714D01*
X0225762Y0122915D01*
X0225098Y0123864D01*
X0225299Y0125006D01*
X0226248Y0125670D01*
X0226445Y0124783D01*
X0226902Y0124702D01*
X0227167Y0124323D01*
X0227086Y0123866D01*
X0226707Y0123601D01*
X0226250Y0123682D01*
X0225985Y0124061D01*
X0226066Y0124518D01*
X0226445Y0124783D01*
X0243818Y0101424D02*
X0243258Y0101984D01*
X0245086Y0101662D01*
X0246149Y0100143D01*
X0245827Y0098315D01*
X0244308Y0097252D01*
X0242480Y0097574D01*
X0241417Y0099093D01*
X0241739Y0100921D01*
X0243258Y0101984D01*
X0243455Y0101096D01*
X0244597Y0100895D01*
X0245261Y0099946D01*
X0245060Y0098804D01*
X0244111Y0098140D01*
X0242969Y0098341D01*
X0242305Y0099290D01*
X0242506Y0100432D01*
X0243455Y0101096D01*
X0243652Y0100209D01*
X0244109Y0100128D01*
X0244374Y0099749D01*
X0244293Y0099292D01*
X0243914Y0099027D01*
X0243457Y0099108D01*
X0243192Y0099487D01*
X0243273Y0099944D01*
X0243652Y0100209D01*
X0242299Y0075324D02*
X0241739Y0074764D01*
X0241417Y0076592D01*
X0242480Y0078111D01*
X0244308Y0078433D01*
X0245827Y0077370D01*
X0246149Y0075542D01*
X0245086Y0074023D01*
X0243258Y0073701D01*
X0241739Y0074764D01*
X0242506Y0075253D01*
X0242305Y0076395D01*
X0242969Y0077344D01*
X0244111Y0077545D01*
X0245060Y0076881D01*
X0245261Y0075739D01*
X0244597Y0074790D01*
X0243455Y0074589D01*
X0242506Y0075253D01*
X0243273Y0075741D01*
X0243192Y0076198D01*
X0243457Y0076577D01*
X0243914Y0076658D01*
X0244293Y0076393D01*
X0244374Y0075936D01*
X0244109Y0075557D01*
X0243652Y0075476D01*
X0243273Y0075741D01*
X0225092Y0050750D02*
X0224532Y0050190D01*
X0224210Y0052018D01*
X0225273Y0053537D01*
X0227101Y0053859D01*
X0228620Y0052796D01*
X0228942Y0050968D01*
X0227879Y0049449D01*
X0226051Y0049127D01*
X0224532Y0050190D01*
X0225299Y0050679D01*
X0225098Y0051821D01*
X0225762Y0052770D01*
X0226904Y0052971D01*
X0227853Y0052307D01*
X0228054Y0051165D01*
X0227390Y0050216D01*
X0226248Y0050015D01*
X0225299Y0050679D01*
X0226066Y0051167D01*
X0225985Y0051624D01*
X0226250Y0052003D01*
X0226707Y0052084D01*
X0227086Y0051819D01*
X0227167Y0051362D01*
X0226902Y0050983D01*
X0226445Y0050902D01*
X0226066Y0051167D01*
D18*
X0202780Y0047530D02*
X0197580Y0047530D01*
X0172780Y0047530D02*
X0167580Y0047530D01*
X0154655Y0075655D02*
X0149455Y0075655D01*
X0124655Y0075655D02*
X0119455Y0075655D01*
X0172580Y0091905D02*
X0177780Y0091905D01*
X0177780Y0101905D02*
X0172580Y0101905D01*
X0172580Y0111905D02*
X0177780Y0111905D01*
X0177780Y0121905D02*
X0172580Y0121905D01*
X0172580Y0131905D02*
X0177780Y0131905D01*
X0177780Y0141905D02*
X0172580Y0141905D01*
X0162680Y0140755D02*
X0162680Y0135555D01*
X0172580Y0151905D02*
X0177780Y0151905D01*
X0177780Y0161905D02*
X0172580Y0161905D01*
X0162680Y0165555D02*
X0162680Y0170755D01*
X0142780Y0165030D02*
X0137580Y0165030D01*
X0112780Y0165030D02*
X0107580Y0165030D01*
X0202580Y0161905D02*
X0207780Y0161905D01*
X0215805Y0157005D02*
X0215805Y0151805D01*
X0207780Y0151905D02*
X0202580Y0151905D01*
X0202580Y0141905D02*
X0207780Y0141905D01*
X0207780Y0131905D02*
X0202580Y0131905D01*
X0215805Y0127005D02*
X0215805Y0121805D01*
X0207780Y0121905D02*
X0202580Y0121905D01*
X0215805Y0114505D02*
X0215805Y0109305D01*
X0207780Y0111905D02*
X0202580Y0111905D01*
X0202580Y0101905D02*
X0207780Y0101905D01*
X0207780Y0091905D02*
X0202580Y0091905D01*
X0228305Y0099930D02*
X0228305Y0105130D01*
X0225180Y0135555D02*
X0225180Y0140755D01*
X0225180Y0165555D02*
X0225180Y0170755D01*
X0228305Y0075130D02*
X0228305Y0069930D01*
X0215805Y0069305D02*
X0215805Y0074505D01*
D19*
X0162680Y0150468D03*
X0162680Y0158342D03*
D20*
X0135416Y0158155D03*
X0135416Y0153155D03*
X0135416Y0148155D03*
X0135416Y0143155D03*
X0114943Y0143155D03*
X0114943Y0148155D03*
X0114943Y0153155D03*
X0114943Y0158155D03*
D21*
X0130524Y0174405D03*
X0142335Y0174405D03*
X0197399Y0058155D03*
X0209210Y0058155D03*
D22*
X0276030Y0054563D02*
X0283080Y0054563D01*
X0283080Y0074248D02*
X0276030Y0074248D01*
X0276030Y0101750D02*
X0283080Y0101750D01*
X0283080Y0121435D02*
X0276030Y0121435D01*
X0276030Y0148313D02*
X0283080Y0148313D01*
X0283080Y0167998D02*
X0276030Y0167998D01*
X0068626Y0128465D02*
X0061576Y0128465D01*
X0061576Y0108780D02*
X0068626Y0108780D01*
X0068626Y0089095D02*
X0061576Y0089095D01*
D23*
X0073118Y0164405D03*
X0080992Y0164405D03*
X0107493Y0174405D03*
X0115367Y0174405D03*
X0121243Y0165655D03*
X0129117Y0165655D03*
D24*
X0098930Y0165645D03*
X0098930Y0158165D03*
X0195180Y0141270D03*
X0195180Y0133790D03*
X0216430Y0133790D03*
X0216430Y0141270D03*
X0223930Y0150040D03*
X0223930Y0157520D03*
D25*
G36*
X0186147Y0114066D02*
X0188096Y0112117D01*
X0185593Y0109614D01*
X0183644Y0111563D01*
X0186147Y0114066D01*
G37*
G36*
X0189766Y0110447D02*
X0191715Y0108498D01*
X0189212Y0105995D01*
X0187263Y0107944D01*
X0189766Y0110447D01*
G37*
D26*
X0117555Y0123780D02*
X0111555Y0123780D01*
X0097555Y0123780D02*
X0091555Y0123780D01*
X0101555Y0133780D02*
X0107555Y0133780D01*
X0106430Y0053655D02*
X0106430Y0047655D01*
X0116430Y0047655D02*
X0116430Y0053655D01*
X0096430Y0053655D02*
X0096430Y0047655D01*
D27*
X0222805Y0086905D03*
X0228805Y0086905D03*
D28*
X0155997Y0109405D03*
X0155997Y0114405D03*
X0155997Y0119405D03*
X0155997Y0124405D03*
X0126863Y0124405D03*
X0126863Y0119405D03*
X0126863Y0114405D03*
X0126863Y0109405D03*
D29*
G36*
X0154063Y0093641D02*
X0151280Y0090858D01*
X0147383Y0094755D01*
X0150166Y0097538D01*
X0154063Y0093641D01*
G37*
G36*
X0162832Y0090161D02*
X0160049Y0087378D01*
X0156152Y0091275D01*
X0158935Y0094058D01*
X0162832Y0090161D01*
G37*
G36*
X0159352Y0098930D02*
X0156569Y0096147D01*
X0152672Y0100044D01*
X0155455Y0102827D01*
X0159352Y0098930D01*
G37*
G36*
X0182527Y0103649D02*
X0185310Y0106432D01*
X0189207Y0102535D01*
X0186424Y0099752D01*
X0182527Y0103649D01*
G37*
G36*
X0186007Y0094880D02*
X0188790Y0097663D01*
X0192687Y0093766D01*
X0189904Y0090983D01*
X0186007Y0094880D01*
G37*
G36*
X0191297Y0100170D02*
X0194080Y0102953D01*
X0197977Y0099056D01*
X0195194Y0096273D01*
X0191297Y0100170D01*
G37*
G36*
X0221290Y0062397D02*
X0218507Y0065180D01*
X0222404Y0069077D01*
X0225187Y0066294D01*
X0221290Y0062397D01*
G37*
G36*
X0226580Y0057108D02*
X0223797Y0059891D01*
X0227694Y0063788D01*
X0230477Y0061005D01*
X0226580Y0057108D01*
G37*
G36*
X0217810Y0053628D02*
X0215027Y0056411D01*
X0218924Y0060308D01*
X0221707Y0057525D01*
X0217810Y0053628D01*
G37*
G36*
X0112547Y0069545D02*
X0115330Y0072328D01*
X0119227Y0068431D01*
X0116444Y0065648D01*
X0112547Y0069545D01*
G37*
G36*
X0103777Y0073024D02*
X0106560Y0075807D01*
X0110457Y0071910D01*
X0107674Y0069127D01*
X0103777Y0073024D01*
G37*
G36*
X0107257Y0064255D02*
X0110040Y0067038D01*
X0113937Y0063141D01*
X0111154Y0060358D01*
X0107257Y0064255D01*
G37*
D30*
G36*
X0129888Y0055788D02*
X0133507Y0059407D01*
X0137682Y0055232D01*
X0134063Y0051613D01*
X0129888Y0055788D01*
G37*
G36*
X0135177Y0061078D02*
X0138796Y0064697D01*
X0142971Y0060522D01*
X0139352Y0056903D01*
X0135177Y0061078D01*
G37*
G36*
X0191921Y0111613D02*
X0188302Y0115232D01*
X0192477Y0119407D01*
X0196096Y0115788D01*
X0191921Y0111613D01*
G37*
G36*
X0186632Y0116903D02*
X0183013Y0120522D01*
X0187188Y0124697D01*
X0190807Y0121078D01*
X0186632Y0116903D01*
G37*
D31*
X0242384Y0153155D03*
X0242384Y0163155D03*
X0267975Y0163155D03*
X0267975Y0153155D03*
X0267975Y0069405D03*
X0267975Y0059405D03*
X0242384Y0059405D03*
X0242384Y0069405D03*
D32*
X0154730Y0054355D03*
X0154730Y0046955D03*
X0143130Y0046955D03*
X0143130Y0050655D03*
X0143130Y0054355D03*
D33*
X0232724Y0167540D03*
X0232724Y0175020D03*
X0241385Y0171280D03*
D34*
X0186430Y0169686D03*
X0186430Y0157875D03*
D35*
X0242778Y0116593D03*
X0242778Y0106593D03*
X0267581Y0106593D03*
X0267581Y0116593D03*
D36*
X0187680Y0076905D03*
X0187680Y0059405D03*
D37*
X0121430Y0096905D02*
X0120180Y0096905D01*
X0108930Y0085655D01*
X0098930Y0085655D02*
X0098930Y0096905D01*
X0090805Y0105030D01*
X0085180Y0094405D02*
X0085180Y0066905D01*
X0083930Y0066905D01*
X0083930Y0066280D01*
X0083305Y0066280D02*
X0083930Y0066905D01*
X0083305Y0066280D02*
X0082055Y0065030D01*
X0080805Y0065030D01*
X0080180Y0064405D01*
X0080805Y0065030D02*
X0067930Y0065030D01*
X0059930Y0065030D02*
X0059930Y0073780D01*
X0076430Y0073780D01*
X0083305Y0066280D02*
X0093305Y0066280D01*
X0097055Y0066280D01*
X0098617Y0064718D01*
X0106430Y0056905D01*
X0106430Y0050655D01*
X0059930Y0073780D02*
X0059930Y0083924D01*
X0065101Y0089095D01*
X0070805Y0108780D02*
X0085180Y0094405D01*
X0070805Y0108780D02*
X0065101Y0108780D01*
X0065101Y0128465D02*
X0060180Y0133386D01*
X0060180Y0143155D01*
D38*
X0051430Y0111255D02*
X0051430Y0045855D01*
X0054159Y0045855D01*
X0053930Y0046084D01*
X0053930Y0048155D01*
X0058929Y0048155D01*
X0058929Y0048155D01*
X0053930Y0048155D01*
X0053930Y0050226D01*
X0056859Y0053155D01*
X0058930Y0053155D01*
X0058930Y0048155D01*
X0058930Y0048155D01*
X0064599Y0048155D01*
X0064599Y0048155D01*
X0064599Y0048155D01*
X0064599Y0051536D01*
X0066070Y0051536D01*
X0066629Y0051386D01*
X0067131Y0051097D01*
X0067540Y0050687D01*
X0067736Y0050348D01*
X0068349Y0051829D01*
X0069587Y0053066D01*
X0071204Y0053736D01*
X0072980Y0053736D01*
X0072980Y0057388D01*
X0073422Y0057830D01*
X0066497Y0057830D01*
X0063851Y0058926D01*
X0062233Y0060545D01*
X0061918Y0060230D01*
X0059930Y0060230D01*
X0059930Y0065030D01*
X0059930Y0065030D01*
X0058930Y0065030D01*
X0058930Y0048155D01*
X0063930Y0048155D01*
X0064599Y0048155D01*
X0064599Y0051536D01*
X0063128Y0051536D01*
X0062727Y0051429D01*
X0061001Y0053155D01*
X0058930Y0053155D01*
X0058930Y0048155D01*
X0058930Y0048155D01*
X0058930Y0050249D02*
X0058930Y0050249D01*
X0058930Y0052648D02*
X0058930Y0052648D01*
X0061508Y0052648D02*
X0069168Y0052648D01*
X0072980Y0055046D02*
X0051430Y0055046D01*
X0051430Y0052648D02*
X0056351Y0052648D01*
X0053953Y0050249D02*
X0051430Y0050249D01*
X0051430Y0047851D02*
X0053930Y0047851D01*
X0051430Y0057445D02*
X0073037Y0057445D01*
X0080180Y0054405D02*
X0080180Y0049405D01*
X0095180Y0049405D01*
X0096430Y0050655D01*
X0080180Y0049405D02*
X0078930Y0048155D01*
X0064599Y0050249D02*
X0064599Y0050249D01*
X0062934Y0059843D02*
X0051430Y0059843D01*
X0051430Y0062242D02*
X0055930Y0062242D01*
X0055130Y0063042D02*
X0057941Y0060230D01*
X0059930Y0060230D01*
X0059930Y0065030D01*
X0059930Y0065030D01*
X0059930Y0069830D01*
X0061918Y0069830D01*
X0062233Y0069515D01*
X0063851Y0071134D01*
X0066497Y0072230D01*
X0077980Y0072230D01*
X0077980Y0091423D01*
X0068547Y0100855D01*
X0059999Y0100855D01*
X0057087Y0102062D01*
X0054857Y0104291D01*
X0053651Y0107204D01*
X0053651Y0110357D01*
X0054023Y0111255D01*
X0051430Y0111255D01*
X0051430Y0110212D02*
X0053651Y0110212D01*
X0053651Y0107814D02*
X0051430Y0107814D01*
X0051430Y0105415D02*
X0054392Y0105415D01*
X0056132Y0103016D02*
X0051430Y0103016D01*
X0051430Y0100618D02*
X0068784Y0100618D01*
X0071183Y0098219D02*
X0051430Y0098219D01*
X0051430Y0095821D02*
X0073582Y0095821D01*
X0072355Y0093462D02*
X0071626Y0093992D01*
X0070824Y0094401D01*
X0069966Y0094679D01*
X0069076Y0094820D01*
X0065101Y0094820D01*
X0065101Y0089095D01*
X0065101Y0083370D01*
X0069076Y0083370D01*
X0069966Y0083511D01*
X0070824Y0083790D01*
X0071626Y0084199D01*
X0072355Y0084728D01*
X0072993Y0085366D01*
X0073522Y0086095D01*
X0073931Y0086898D01*
X0074210Y0087755D01*
X0074351Y0088645D01*
X0074351Y0089095D01*
X0065101Y0089095D01*
X0065101Y0089095D01*
X0065101Y0089095D01*
X0065101Y0083370D01*
X0061125Y0083370D01*
X0060235Y0083511D01*
X0059378Y0083790D01*
X0058575Y0084199D01*
X0057846Y0084728D01*
X0057209Y0085366D01*
X0056679Y0086095D01*
X0056270Y0086898D01*
X0055992Y0087755D01*
X0055851Y0088645D01*
X0055851Y0089095D01*
X0065101Y0089095D01*
X0074351Y0089095D01*
X0074351Y0089546D01*
X0074210Y0090436D01*
X0073931Y0091293D01*
X0073522Y0092096D01*
X0072993Y0092825D01*
X0072355Y0093462D01*
X0072395Y0093422D02*
X0075980Y0093422D01*
X0074019Y0091024D02*
X0077980Y0091024D01*
X0077980Y0088625D02*
X0074348Y0088625D01*
X0073590Y0086227D02*
X0077980Y0086227D01*
X0077980Y0083828D02*
X0070900Y0083828D01*
X0065101Y0083828D02*
X0065101Y0083828D01*
X0065101Y0086227D02*
X0065101Y0086227D01*
X0065101Y0088625D02*
X0065101Y0088625D01*
X0065101Y0089095D02*
X0065101Y0089095D01*
X0065101Y0089095D01*
X0055851Y0089095D01*
X0055851Y0089546D01*
X0055992Y0090436D01*
X0056270Y0091293D01*
X0056679Y0092096D01*
X0057209Y0092825D01*
X0057846Y0093462D01*
X0058575Y0093992D01*
X0059378Y0094401D01*
X0060235Y0094679D01*
X0061125Y0094820D01*
X0065101Y0094820D01*
X0065101Y0089095D01*
X0065101Y0091024D02*
X0065101Y0091024D01*
X0065101Y0093422D02*
X0065101Y0093422D01*
X0057807Y0093422D02*
X0051430Y0093422D01*
X0051430Y0091024D02*
X0056183Y0091024D01*
X0055854Y0088625D02*
X0051430Y0088625D01*
X0051430Y0086227D02*
X0056612Y0086227D01*
X0059302Y0083828D02*
X0051430Y0083828D01*
X0051430Y0081430D02*
X0077980Y0081430D01*
X0077980Y0079031D02*
X0051430Y0079031D01*
X0051430Y0076633D02*
X0077980Y0076633D01*
X0077980Y0074234D02*
X0051430Y0074234D01*
X0051430Y0071836D02*
X0065545Y0071836D01*
X0059930Y0069830D02*
X0057941Y0069830D01*
X0055130Y0067018D01*
X0055130Y0065030D01*
X0055130Y0063042D01*
X0055130Y0064640D02*
X0051430Y0064640D01*
X0051430Y0067039D02*
X0055150Y0067039D01*
X0055130Y0065030D02*
X0059929Y0065030D01*
X0055130Y0065030D01*
X0059929Y0065030D02*
X0059929Y0065030D01*
X0059930Y0065030D02*
X0059930Y0069830D01*
X0059930Y0069437D02*
X0059930Y0069437D01*
X0057549Y0069437D02*
X0051430Y0069437D01*
X0059930Y0067039D02*
X0059930Y0067039D01*
X0059930Y0064640D02*
X0059930Y0064640D01*
X0059930Y0062242D02*
X0059930Y0062242D01*
X0092380Y0073480D02*
X0092380Y0095837D01*
X0091283Y0098484D01*
X0089737Y0100030D01*
X0090805Y0100030D01*
X0092876Y0100030D01*
X0095805Y0102959D01*
X0095805Y0105030D01*
X0090805Y0105030D01*
X0090805Y0105030D01*
X0090805Y0100030D01*
X0090805Y0105030D01*
X0090805Y0105030D01*
X0095805Y0105030D01*
X0095805Y0107101D01*
X0092876Y0110030D01*
X0090805Y0110030D01*
X0090805Y0105030D01*
X0090805Y0105030D01*
X0090804Y0105030D02*
X0085805Y0105030D01*
X0085805Y0103962D01*
X0078512Y0111255D01*
X0088305Y0111255D01*
X0089922Y0111925D01*
X0091160Y0113163D01*
X0091830Y0114780D01*
X0091830Y0116380D01*
X0096535Y0116380D01*
X0097355Y0115561D01*
X0097355Y0112673D01*
X0101572Y0108455D01*
X0104047Y0108455D01*
X0103605Y0108013D01*
X0103605Y0102048D01*
X0107822Y0097830D01*
X0110922Y0097830D01*
X0105498Y0092406D01*
X0104653Y0092056D01*
X0102529Y0089932D01*
X0102438Y0089713D01*
X0101146Y0091005D01*
X0098930Y0091005D01*
X0098930Y0085655D01*
X0098930Y0080305D01*
X0101146Y0080305D01*
X0102438Y0081598D01*
X0102529Y0081378D01*
X0104281Y0079626D01*
X0104068Y0079538D01*
X0100047Y0075517D01*
X0099377Y0073899D01*
X0099377Y0073397D01*
X0099175Y0073195D01*
X0098487Y0073480D01*
X0092380Y0073480D01*
X0092380Y0074234D02*
X0099515Y0074234D01*
X0101163Y0076633D02*
X0092380Y0076633D01*
X0092380Y0079031D02*
X0103561Y0079031D01*
X0102508Y0081430D02*
X0102270Y0081430D01*
X0098930Y0081430D02*
X0098930Y0081430D01*
X0098930Y0080305D02*
X0096714Y0080305D01*
X0093580Y0083439D01*
X0093580Y0085655D01*
X0098929Y0085655D01*
X0098929Y0085655D01*
X0093580Y0085655D01*
X0093580Y0087871D01*
X0096714Y0091005D01*
X0098930Y0091005D01*
X0098930Y0085655D01*
X0098930Y0085655D01*
X0098930Y0080305D01*
X0095589Y0081430D02*
X0092380Y0081430D01*
X0092380Y0083828D02*
X0093580Y0083828D01*
X0093580Y0086227D02*
X0092380Y0086227D01*
X0092380Y0088625D02*
X0094334Y0088625D01*
X0092380Y0091024D02*
X0103621Y0091024D01*
X0106515Y0093422D02*
X0092380Y0093422D01*
X0092380Y0095821D02*
X0108913Y0095821D01*
X0107433Y0098219D02*
X0091393Y0098219D01*
X0090805Y0100618D02*
X0090805Y0100618D01*
X0090805Y0103016D02*
X0090805Y0103016D01*
X0090804Y0105030D02*
X0090804Y0105030D01*
X0085805Y0105030D01*
X0085805Y0107101D01*
X0088734Y0110030D01*
X0090805Y0110030D01*
X0090805Y0105030D01*
X0090805Y0105415D02*
X0090805Y0105415D01*
X0090805Y0107814D02*
X0090805Y0107814D01*
X0095092Y0107814D02*
X0103605Y0107814D01*
X0103605Y0105415D02*
X0095805Y0105415D01*
X0095805Y0103016D02*
X0103605Y0103016D01*
X0105034Y0100618D02*
X0093463Y0100618D01*
X0085805Y0105415D02*
X0084352Y0105415D01*
X0086517Y0107814D02*
X0081954Y0107814D01*
X0079555Y0110212D02*
X0099815Y0110212D01*
X0097417Y0112611D02*
X0090607Y0112611D01*
X0091830Y0115009D02*
X0097355Y0115009D01*
X0104555Y0115655D02*
X0104555Y0116280D01*
X0097055Y0123780D01*
X0094555Y0123780D01*
X0104555Y0133155D02*
X0104555Y0133780D01*
X0104555Y0133155D02*
X0116430Y0133155D01*
X0121474Y0133155D01*
X0124599Y0130030D01*
X0124599Y0128780D01*
X0135180Y0128780D01*
X0135180Y0125655D01*
X0135180Y0106905D01*
X0125180Y0096905D01*
X0121430Y0096905D01*
X0128269Y0092123D02*
X0128352Y0092158D01*
X0129927Y0093733D01*
X0139927Y0103733D01*
X0140780Y0105791D01*
X0140780Y0123180D01*
X0146601Y0123180D01*
X0143271Y0119851D01*
X0142480Y0117940D01*
X0142480Y0101905D01*
X0141430Y0101905D01*
X0141430Y0096905D01*
X0141430Y0091905D01*
X0143501Y0091905D01*
X0143755Y0092159D01*
X0145830Y0090084D01*
X0145830Y0085791D01*
X0146682Y0083733D01*
X0148257Y0082158D01*
X0149960Y0080455D01*
X0149077Y0080455D01*
X0148331Y0080337D01*
X0147612Y0080104D01*
X0146939Y0079761D01*
X0146328Y0079316D01*
X0145793Y0078782D01*
X0145349Y0078171D01*
X0145006Y0077498D01*
X0144773Y0076779D01*
X0144655Y0076033D01*
X0144655Y0075655D01*
X0144655Y0075277D01*
X0144773Y0074531D01*
X0145006Y0073813D01*
X0145349Y0073139D01*
X0145793Y0072528D01*
X0146328Y0071994D01*
X0146939Y0071550D01*
X0147612Y0071207D01*
X0148331Y0070973D01*
X0148953Y0070875D01*
X0146430Y0068351D01*
X0146430Y0066280D01*
X0146430Y0064209D01*
X0149359Y0061280D01*
X0151430Y0061280D01*
X0153501Y0061280D01*
X0156430Y0064209D01*
X0156430Y0066280D01*
X0151430Y0066280D01*
X0151430Y0066280D01*
X0151430Y0061280D01*
X0151430Y0066280D01*
X0151430Y0066280D01*
X0156430Y0066280D01*
X0156430Y0068351D01*
X0153926Y0070855D01*
X0155032Y0070855D01*
X0155779Y0070973D01*
X0156497Y0071207D01*
X0157170Y0071550D01*
X0157782Y0071994D01*
X0158101Y0072314D01*
X0158330Y0072086D01*
X0158330Y0065863D01*
X0156730Y0064263D01*
X0156730Y0059805D01*
X0152054Y0059805D01*
X0150437Y0059135D01*
X0149199Y0057898D01*
X0148530Y0056280D01*
X0148530Y0054328D01*
X0147422Y0055435D01*
X0147130Y0055556D01*
X0147130Y0055695D01*
X0146980Y0056254D01*
X0146690Y0056756D01*
X0146280Y0057166D01*
X0145779Y0057455D01*
X0145219Y0057605D01*
X0143167Y0057605D01*
X0144732Y0059171D01*
X0145022Y0059672D01*
X0145172Y0060232D01*
X0145172Y0060811D01*
X0145022Y0061371D01*
X0144732Y0061872D01*
X0142496Y0064109D01*
X0139187Y0060800D01*
X0139074Y0060912D01*
X0142383Y0064221D01*
X0140147Y0066458D01*
X0139645Y0066747D01*
X0139086Y0066897D01*
X0138630Y0066897D01*
X0138630Y0069263D01*
X0134412Y0073480D01*
X0131330Y0073480D01*
X0131655Y0074263D01*
X0131655Y0077048D01*
X0130589Y0079620D01*
X0130270Y0079939D01*
X0131735Y0081404D01*
X0133109Y0080030D01*
X0135180Y0080030D01*
X0137251Y0080030D01*
X0140180Y0082959D01*
X0140180Y0085030D01*
X0135180Y0085030D01*
X0135180Y0085030D01*
X0135180Y0080030D01*
X0135180Y0085030D01*
X0135180Y0085030D01*
X0140180Y0085030D01*
X0140180Y0087101D01*
X0137251Y0090030D01*
X0135180Y0090030D01*
X0135180Y0085030D01*
X0135180Y0086280D01*
X0141430Y0086280D01*
X0141430Y0096905D01*
X0141430Y0096905D01*
X0141430Y0095655D01*
X0141430Y0095821D02*
X0141430Y0095821D01*
X0141430Y0096905D02*
X0141430Y0091905D01*
X0139359Y0091905D01*
X0136430Y0094834D01*
X0136430Y0096905D01*
X0141429Y0096905D01*
X0141429Y0096905D01*
X0136430Y0096905D01*
X0136430Y0098976D01*
X0139359Y0101905D01*
X0141430Y0101905D01*
X0141430Y0096905D01*
X0141430Y0096905D01*
X0141430Y0098219D02*
X0141430Y0098219D01*
X0141430Y0100618D02*
X0141430Y0100618D01*
X0142480Y0103016D02*
X0139210Y0103016D01*
X0138071Y0100618D02*
X0136812Y0100618D01*
X0136430Y0098219D02*
X0134413Y0098219D01*
X0136430Y0095821D02*
X0132015Y0095821D01*
X0129616Y0093422D02*
X0137841Y0093422D01*
X0141430Y0093422D02*
X0141430Y0093422D01*
X0144890Y0091024D02*
X0129368Y0091024D01*
X0128269Y0092123D02*
X0131735Y0088657D01*
X0133109Y0090030D01*
X0135180Y0090030D01*
X0135180Y0085030D01*
X0135180Y0085030D01*
X0135180Y0086227D02*
X0135180Y0086227D01*
X0135180Y0088625D02*
X0135180Y0088625D01*
X0138655Y0088625D02*
X0145830Y0088625D01*
X0145830Y0086227D02*
X0140180Y0086227D01*
X0141430Y0086280D02*
X0152055Y0075655D01*
X0151430Y0075655D01*
X0151430Y0066280D01*
X0150805Y0065655D01*
X0143305Y0065655D01*
X0143305Y0065030D01*
X0139074Y0060800D01*
X0140404Y0062242D02*
X0140629Y0062242D01*
X0141964Y0064640D02*
X0146430Y0064640D01*
X0146430Y0066280D02*
X0151429Y0066280D01*
X0151429Y0066280D01*
X0146430Y0066280D01*
X0146430Y0067039D02*
X0138630Y0067039D01*
X0138455Y0069437D02*
X0147516Y0069437D01*
X0146545Y0071836D02*
X0136056Y0071836D01*
X0131643Y0074234D02*
X0144869Y0074234D01*
X0144655Y0075655D02*
X0152054Y0075655D01*
X0152054Y0075655D01*
X0144655Y0075655D01*
X0144750Y0076633D02*
X0131655Y0076633D01*
X0130833Y0079031D02*
X0146043Y0079031D01*
X0148985Y0081430D02*
X0138650Y0081430D01*
X0140180Y0083828D02*
X0146643Y0083828D01*
X0151430Y0086905D02*
X0151430Y0093491D01*
X0150723Y0094198D01*
X0156012Y0099487D02*
X0160305Y0103780D01*
X0163930Y0103780D01*
X0163929Y0103780D02*
X0158930Y0103780D01*
X0158930Y0102465D01*
X0157570Y0103824D01*
X0158930Y0103824D01*
X0158930Y0103780D01*
X0163929Y0103780D01*
X0163929Y0103780D01*
X0158930Y0103016D02*
X0158378Y0103016D01*
X0164555Y0111905D02*
X0175180Y0111905D01*
X0177680Y0111905D01*
X0185867Y0103717D01*
X0185867Y0103092D01*
X0175180Y0101905D02*
X0172680Y0101905D01*
X0165180Y0094405D01*
X0165180Y0090781D01*
X0165117Y0090718D01*
X0159492Y0090718D01*
X0165117Y0090718D02*
X0173930Y0081905D01*
X0173930Y0079405D01*
X0163930Y0074405D02*
X0151430Y0086905D01*
X0135180Y0083828D02*
X0135180Y0083828D01*
X0135180Y0081430D02*
X0135180Y0081430D01*
X0125180Y0085030D02*
X0123930Y0085030D01*
X0123930Y0075655D01*
X0122055Y0075655D01*
X0123930Y0075655D02*
X0123930Y0068155D01*
X0115887Y0068155D01*
X0115887Y0068988D01*
X0110597Y0063698D02*
X0112390Y0061905D01*
X0117680Y0061905D01*
X0122680Y0056905D01*
X0132390Y0056905D01*
X0133785Y0055510D01*
X0145068Y0059843D02*
X0156730Y0059843D01*
X0156730Y0062242D02*
X0154462Y0062242D01*
X0151430Y0062242D02*
X0151430Y0062242D01*
X0151430Y0064640D02*
X0151430Y0064640D01*
X0148397Y0062242D02*
X0144363Y0062242D01*
X0145797Y0057445D02*
X0149012Y0057445D01*
X0148530Y0055046D02*
X0147811Y0055046D01*
X0156430Y0064640D02*
X0157107Y0064640D01*
X0156430Y0067039D02*
X0158330Y0067039D01*
X0158330Y0069437D02*
X0155344Y0069437D01*
X0157564Y0071836D02*
X0158330Y0071836D01*
X0163930Y0074405D02*
X0163930Y0061280D01*
X0162680Y0060030D01*
X0162680Y0047530D01*
X0161430Y0047530D01*
X0162680Y0047530D02*
X0170180Y0047530D01*
X0175258Y0054080D02*
X0176912Y0054080D01*
X0180651Y0057819D01*
X0180847Y0057086D01*
X0181208Y0056214D01*
X0181680Y0055396D01*
X0182255Y0054648D01*
X0182922Y0053980D01*
X0183671Y0053406D01*
X0184488Y0052934D01*
X0185360Y0052573D01*
X0186272Y0052328D01*
X0187208Y0052205D01*
X0187680Y0052205D01*
X0187680Y0059405D01*
X0187680Y0059405D01*
X0197399Y0059405D01*
X0197399Y0058155D01*
X0197123Y0058432D02*
X0197123Y0064292D01*
X0194157Y0064292D01*
X0193597Y0064142D01*
X0193267Y0063951D01*
X0193104Y0064163D01*
X0192437Y0064830D01*
X0191688Y0065405D01*
X0190871Y0065877D01*
X0189999Y0066238D01*
X0189087Y0066482D01*
X0188152Y0066605D01*
X0187680Y0066605D01*
X0187680Y0059405D01*
X0187680Y0052205D01*
X0188152Y0052205D01*
X0189087Y0052328D01*
X0189999Y0052573D01*
X0190871Y0052934D01*
X0191688Y0053406D01*
X0192267Y0053850D01*
X0192396Y0053369D01*
X0192686Y0052867D01*
X0193096Y0052458D01*
X0193597Y0052168D01*
X0194157Y0052018D01*
X0195859Y0052018D01*
X0195737Y0051979D01*
X0195064Y0051636D01*
X0194453Y0051191D01*
X0193918Y0050657D01*
X0193474Y0050046D01*
X0193131Y0049373D01*
X0192898Y0048654D01*
X0192780Y0047908D01*
X0192780Y0047530D01*
X0192780Y0047152D01*
X0192898Y0046406D01*
X0193077Y0045855D01*
X0179663Y0045855D01*
X0179780Y0046138D01*
X0179780Y0048923D01*
X0178714Y0051495D01*
X0176745Y0053464D01*
X0175258Y0054080D01*
X0177562Y0052648D02*
X0185179Y0052648D01*
X0187680Y0052648D02*
X0187680Y0052648D01*
X0187680Y0055046D02*
X0187680Y0055046D01*
X0187680Y0057445D02*
X0187680Y0057445D01*
X0187680Y0059405D02*
X0187680Y0066605D01*
X0187208Y0066605D01*
X0186272Y0066482D01*
X0185360Y0066238D01*
X0184629Y0065935D01*
X0186199Y0067505D01*
X0189549Y0067505D01*
X0193004Y0068936D01*
X0195649Y0071581D01*
X0197080Y0075035D01*
X0197080Y0077555D01*
X0200022Y0077555D01*
X0198605Y0076138D01*
X0198605Y0070173D01*
X0200205Y0068573D01*
X0200205Y0064292D01*
X0197675Y0064292D01*
X0197675Y0058432D01*
X0197123Y0058432D01*
X0197123Y0059843D02*
X0197675Y0059843D01*
X0197675Y0062242D02*
X0197123Y0062242D01*
X0200205Y0064640D02*
X0192627Y0064640D01*
X0187680Y0064640D02*
X0187680Y0064640D01*
X0187680Y0062242D02*
X0187680Y0062242D01*
X0187680Y0059843D02*
X0187680Y0059843D01*
X0187680Y0059405D02*
X0187680Y0059405D01*
X0181949Y0055046D02*
X0177878Y0055046D01*
X0180277Y0057445D02*
X0180751Y0057445D01*
X0179230Y0050249D02*
X0193622Y0050249D01*
X0192905Y0052648D02*
X0190180Y0052648D01*
X0192780Y0047851D02*
X0179780Y0047851D01*
X0192780Y0047530D02*
X0200179Y0047530D01*
X0200179Y0047530D01*
X0192780Y0047530D01*
X0197680Y0047530D02*
X0200180Y0047530D01*
X0200180Y0047530D01*
X0207580Y0047530D01*
X0207580Y0047152D01*
X0207461Y0046406D01*
X0207282Y0045855D01*
X0222075Y0045855D01*
X0222021Y0045893D01*
X0220728Y0045893D01*
X0218670Y0046745D01*
X0215659Y0049756D01*
X0215318Y0049897D01*
X0214691Y0050524D01*
X0214655Y0050488D01*
X0213038Y0049818D01*
X0207001Y0049818D01*
X0207228Y0049373D01*
X0207461Y0048654D01*
X0207580Y0047908D01*
X0207580Y0047530D01*
X0200180Y0047530D01*
X0207580Y0047851D02*
X0217564Y0047851D01*
X0214966Y0050249D02*
X0214079Y0050249D01*
X0218930Y0054405D02*
X0218930Y0056406D01*
X0218367Y0056968D01*
X0219226Y0056968D01*
X0218930Y0054405D02*
X0221842Y0051493D01*
X0226576Y0051493D01*
X0232815Y0047851D02*
X0242030Y0047851D01*
X0242030Y0045855D02*
X0231418Y0045855D01*
X0234184Y0049806D01*
X0233149Y0055680D01*
X0230276Y0057692D01*
X0232125Y0059541D01*
X0234835Y0056830D01*
X0234835Y0056758D01*
X0235505Y0055141D01*
X0236742Y0053903D01*
X0238360Y0053234D01*
X0242030Y0053234D01*
X0242030Y0045855D01*
X0242030Y0050249D02*
X0234106Y0050249D01*
X0233683Y0052648D02*
X0242030Y0052648D01*
X0242384Y0059405D02*
X0240180Y0059405D01*
X0235180Y0064405D01*
X0235180Y0081905D01*
X0242533Y0089259D01*
X0242533Y0099405D01*
X0242746Y0099618D01*
X0243783Y0099618D01*
X0242533Y0099405D02*
X0242533Y0106348D01*
X0242778Y0106593D01*
X0242055Y0106593D01*
X0235805Y0112530D02*
X0228305Y0105030D01*
X0228305Y0102530D01*
X0216455Y0102305D02*
X0216455Y0091775D01*
X0216105Y0090930D01*
X0216105Y0082880D01*
X0216179Y0082700D01*
X0214985Y0081505D01*
X0214412Y0081505D01*
X0213005Y0080922D01*
X0213005Y0086138D01*
X0210902Y0088240D01*
X0210907Y0088244D01*
X0211441Y0088778D01*
X0211885Y0089389D01*
X0212228Y0090063D01*
X0212461Y0090781D01*
X0212580Y0091527D01*
X0212580Y0091905D01*
X0205180Y0091905D01*
X0205180Y0091905D01*
X0205180Y0090355D01*
X0205180Y0090355D01*
X0205180Y0091905D01*
X0205180Y0091905D01*
X0212580Y0091905D01*
X0212580Y0092283D01*
X0212461Y0093029D01*
X0212228Y0093748D01*
X0211885Y0094421D01*
X0211441Y0095032D01*
X0210907Y0095566D01*
X0210295Y0096011D01*
X0209622Y0096354D01*
X0208904Y0096587D01*
X0208157Y0096705D01*
X0205180Y0096705D01*
X0205180Y0091905D01*
X0205180Y0090655D01*
X0193015Y0090655D01*
X0189347Y0094323D01*
X0186400Y0091376D01*
X0188553Y0089222D01*
X0189055Y0088932D01*
X0189614Y0088783D01*
X0190194Y0088783D01*
X0190753Y0088932D01*
X0191255Y0089222D01*
X0192852Y0090819D01*
X0194026Y0091993D01*
X0194318Y0091872D01*
X0196069Y0091872D01*
X0197686Y0092542D01*
X0197846Y0092702D01*
X0197780Y0092283D01*
X0197780Y0091905D01*
X0197780Y0091527D01*
X0197898Y0090781D01*
X0198131Y0090063D01*
X0198474Y0089389D01*
X0198918Y0088778D01*
X0198941Y0088755D01*
X0192816Y0088755D01*
X0190757Y0087903D01*
X0189242Y0086387D01*
X0184780Y0090850D01*
X0184780Y0092996D01*
X0186400Y0091376D01*
X0189347Y0094323D01*
X0189347Y0094323D01*
X0189347Y0094323D01*
X0192852Y0090819D01*
X0189347Y0094323D01*
X0188447Y0093422D02*
X0188446Y0093422D01*
X0190248Y0093422D02*
X0190248Y0093422D01*
X0192646Y0091024D02*
X0192647Y0091024D01*
X0193057Y0091024D02*
X0197859Y0091024D01*
X0197780Y0091905D02*
X0205179Y0091905D01*
X0205179Y0091905D01*
X0197780Y0091905D01*
X0201735Y0096631D02*
X0201948Y0097145D01*
X0202202Y0097105D01*
X0205180Y0097105D01*
X0208157Y0097105D01*
X0208904Y0097223D01*
X0209622Y0097457D01*
X0210295Y0097800D01*
X0210907Y0098244D01*
X0211441Y0098778D01*
X0211885Y0099389D01*
X0212228Y0100063D01*
X0212461Y0100781D01*
X0212580Y0101527D01*
X0212580Y0101905D01*
X0205180Y0101905D01*
X0205180Y0101905D01*
X0205180Y0097105D01*
X0205180Y0101905D01*
X0205180Y0101905D01*
X0212580Y0101905D01*
X0212580Y0102283D01*
X0212461Y0103029D01*
X0212430Y0103126D01*
X0214412Y0102305D01*
X0216455Y0102305D01*
X0216455Y0100618D02*
X0212408Y0100618D01*
X0212463Y0103016D02*
X0212695Y0103016D01*
X0210873Y0098219D02*
X0216455Y0098219D01*
X0216455Y0095821D02*
X0210556Y0095821D01*
X0212334Y0093422D02*
X0216455Y0093422D01*
X0216143Y0091024D02*
X0212500Y0091024D01*
X0211288Y0088625D02*
X0216105Y0088625D01*
X0216105Y0086227D02*
X0212915Y0086227D01*
X0213005Y0083828D02*
X0216105Y0083828D01*
X0214230Y0081430D02*
X0213005Y0081430D01*
X0205805Y0083155D02*
X0193930Y0083155D01*
X0187680Y0076905D01*
X0187680Y0080030D01*
X0175805Y0091905D01*
X0175180Y0091905D01*
X0184780Y0091024D02*
X0186751Y0091024D01*
X0187004Y0088625D02*
X0192502Y0088625D01*
X0201735Y0096631D02*
X0202202Y0096705D01*
X0205180Y0096705D01*
X0205180Y0091905D01*
X0205180Y0101905D01*
X0205180Y0100618D02*
X0205180Y0100618D01*
X0205180Y0098219D02*
X0205180Y0098219D01*
X0205180Y0095821D02*
X0205180Y0095821D01*
X0205180Y0093422D02*
X0205180Y0093422D01*
X0205180Y0091905D02*
X0205180Y0091905D01*
X0205180Y0091024D02*
X0205180Y0091024D01*
X0199100Y0076633D02*
X0197080Y0076633D01*
X0196748Y0074234D02*
X0198605Y0074234D01*
X0198605Y0071836D02*
X0195754Y0071836D01*
X0193505Y0069437D02*
X0199340Y0069437D01*
X0200205Y0067039D02*
X0185733Y0067039D01*
X0181430Y0070655D02*
X0173930Y0070655D01*
X0173930Y0069405D01*
X0173930Y0061280D01*
X0181430Y0070655D02*
X0187680Y0076905D01*
X0205805Y0073155D02*
X0215805Y0073155D01*
X0215805Y0071905D01*
X0215805Y0071625D01*
X0215805Y0071905D02*
X0215805Y0070030D01*
X0219972Y0065863D01*
X0221847Y0065863D01*
X0221847Y0065737D01*
X0215805Y0071905D02*
X0215805Y0074405D01*
X0222055Y0080655D01*
X0222055Y0086905D01*
X0222805Y0086905D01*
X0222680Y0087030D01*
X0222055Y0086905D02*
X0222055Y0117530D01*
X0215805Y0123780D01*
X0215805Y0124405D01*
X0215170Y0132530D02*
X0205180Y0132530D01*
X0205180Y0131905D01*
X0195180Y0133790D02*
X0195180Y0128780D01*
X0202055Y0121905D01*
X0205180Y0121905D01*
X0195805Y0111905D02*
X0192199Y0115510D01*
X0195805Y0111905D02*
X0205180Y0111905D01*
X0186910Y0120800D02*
X0186910Y0122050D01*
X0177055Y0131905D01*
X0175180Y0131905D01*
X0172055Y0131905D01*
X0165805Y0138155D01*
X0162680Y0138155D01*
X0155680Y0140655D02*
X0153930Y0140655D01*
X0153930Y0135655D01*
X0153930Y0135655D01*
X0153930Y0140655D01*
X0151859Y0140655D01*
X0150485Y0139282D01*
X0148812Y0140955D01*
X0154412Y0140955D01*
X0155733Y0142276D01*
X0155680Y0142148D01*
X0155680Y0140655D01*
X0155680Y0141393D02*
X0154849Y0141393D01*
X0153930Y0138994D02*
X0153930Y0138994D01*
X0153930Y0136596D02*
X0153930Y0136596D01*
X0143930Y0135655D02*
X0133885Y0135655D01*
X0133260Y0135030D01*
X0135180Y0128780D02*
X0160805Y0128780D01*
X0167680Y0121905D01*
X0164555Y0121905D01*
X0167680Y0121905D02*
X0175180Y0121905D01*
X0175180Y0141905D02*
X0189555Y0141905D01*
X0195180Y0141905D01*
X0195180Y0141270D01*
X0195580Y0152105D02*
X0182580Y0152105D01*
X0182580Y0152283D01*
X0182510Y0152722D01*
X0186153Y0152722D01*
X0186153Y0157598D01*
X0186706Y0157598D01*
X0186706Y0152722D01*
X0190656Y0152722D01*
X0191216Y0152872D01*
X0191717Y0153161D01*
X0192127Y0153571D01*
X0192417Y0154073D01*
X0192567Y0154632D01*
X0192567Y0157598D01*
X0186706Y0157598D01*
X0186706Y0158151D01*
X0192567Y0158151D01*
X0192567Y0161117D01*
X0192417Y0161677D01*
X0192127Y0162178D01*
X0191758Y0162547D01*
X0191778Y0162555D01*
X0197823Y0162555D01*
X0197780Y0162283D01*
X0197780Y0161905D01*
X0197780Y0161527D01*
X0197898Y0160781D01*
X0198131Y0160063D01*
X0198474Y0159389D01*
X0198918Y0158778D01*
X0199453Y0158244D01*
X0199503Y0158207D01*
X0198614Y0157839D01*
X0196645Y0155870D01*
X0195580Y0153298D01*
X0195580Y0152105D01*
X0195616Y0153385D02*
X0191941Y0153385D01*
X0192567Y0155784D02*
X0196609Y0155784D01*
X0199442Y0158182D02*
X0192567Y0158182D01*
X0192567Y0160581D02*
X0197963Y0160581D01*
X0197780Y0161905D02*
X0205179Y0161905D01*
X0205179Y0161905D01*
X0197780Y0161905D01*
X0205180Y0161905D02*
X0186430Y0161905D01*
X0186430Y0157875D01*
X0186706Y0158151D02*
X0186153Y0158151D01*
X0186153Y0157598D01*
X0180293Y0157598D01*
X0180293Y0156012D01*
X0179622Y0156354D01*
X0178904Y0156587D01*
X0178157Y0156705D01*
X0175180Y0156705D01*
X0175180Y0152105D01*
X0175180Y0152105D01*
X0175180Y0156705D01*
X0172202Y0156705D01*
X0171456Y0156587D01*
X0170737Y0156354D01*
X0170064Y0156011D01*
X0169487Y0155592D01*
X0168322Y0156757D01*
X0168029Y0156878D01*
X0168029Y0158263D01*
X0162759Y0158263D01*
X0162759Y0158422D01*
X0168029Y0158422D01*
X0168029Y0160377D01*
X0168131Y0160063D01*
X0168474Y0159389D01*
X0168918Y0158778D01*
X0169453Y0158244D01*
X0170064Y0157800D01*
X0170737Y0157457D01*
X0171456Y0157223D01*
X0172202Y0157105D01*
X0175180Y0157105D01*
X0178157Y0157105D01*
X0178904Y0157223D01*
X0179622Y0157457D01*
X0180295Y0157800D01*
X0180779Y0158151D01*
X0186153Y0158151D01*
X0186153Y0162333D01*
X0186706Y0162333D01*
X0186706Y0158151D01*
X0186706Y0158182D02*
X0186153Y0158182D01*
X0186153Y0155784D02*
X0186706Y0155784D01*
X0186706Y0153385D02*
X0186153Y0153385D01*
X0175180Y0153385D02*
X0175180Y0153385D01*
X0175180Y0151905D02*
X0175180Y0161905D01*
X0175180Y0157105D01*
X0175180Y0161905D01*
X0175180Y0161905D01*
X0168305Y0161905D01*
X0164742Y0158342D01*
X0162680Y0158342D01*
X0161243Y0158342D01*
X0152680Y0166905D01*
X0152680Y0174405D01*
X0152680Y0169405D01*
X0154751Y0169405D01*
X0155680Y0170334D01*
X0155680Y0164163D01*
X0155733Y0164034D01*
X0154412Y0165355D01*
X0149780Y0165355D01*
X0149780Y0166423D01*
X0148714Y0168995D01*
X0147488Y0170221D01*
X0147488Y0174129D01*
X0142612Y0174129D01*
X0142612Y0174682D01*
X0147488Y0174682D01*
X0147488Y0177187D01*
X0148391Y0177187D01*
X0147680Y0176476D01*
X0147680Y0174405D01*
X0147680Y0172334D01*
X0150609Y0169405D01*
X0152680Y0169405D01*
X0152680Y0174405D01*
X0152680Y0174405D01*
X0155180Y0176905D01*
X0228930Y0176905D01*
X0230814Y0175020D01*
X0232724Y0175020D01*
X0230814Y0175020D01*
X0230814Y0175020D01*
X0232724Y0175020D01*
X0232724Y0175020D01*
X0232724Y0167540D02*
X0230805Y0167540D01*
X0230805Y0128421D01*
X0226576Y0124192D01*
X0216430Y0133790D02*
X0215170Y0132530D01*
X0225180Y0138155D02*
X0225180Y0141270D01*
X0225180Y0141280D01*
X0225180Y0141270D02*
X0216430Y0141270D01*
X0215805Y0154405D02*
X0215805Y0157520D01*
X0223930Y0157520D01*
X0235805Y0158780D02*
X0235805Y0112530D01*
X0242055Y0117316D02*
X0242055Y0130655D01*
X0242055Y0140655D02*
X0242055Y0152825D01*
X0242384Y0153155D01*
X0235805Y0158780D02*
X0240180Y0163155D01*
X0242384Y0163155D01*
X0241385Y0164154D01*
X0241385Y0171280D01*
X0230805Y0167540D02*
X0225795Y0167540D01*
X0225180Y0168155D01*
X0186430Y0168155D01*
X0162680Y0168155D01*
X0155680Y0167776D02*
X0149219Y0167776D01*
X0149780Y0165378D02*
X0155680Y0165378D01*
X0155680Y0170175D02*
X0155520Y0170175D01*
X0152680Y0170175D02*
X0152680Y0170175D01*
X0152680Y0172573D02*
X0152680Y0172573D01*
X0152679Y0174405D02*
X0147680Y0174405D01*
X0152679Y0174405D01*
X0152679Y0174405D01*
X0152680Y0174405D02*
X0142335Y0174405D01*
X0147488Y0174972D02*
X0147680Y0174972D01*
X0147680Y0172573D02*
X0147488Y0172573D01*
X0147534Y0170175D02*
X0149839Y0170175D01*
X0140180Y0165030D02*
X0129117Y0165030D01*
X0128930Y0165030D01*
X0128930Y0165655D01*
X0128930Y0174405D01*
X0122680Y0174405D01*
X0115367Y0174405D01*
X0107493Y0174405D02*
X0107493Y0165030D01*
X0110180Y0165030D01*
X0121243Y0165030D01*
X0121243Y0165655D01*
X0129117Y0165655D02*
X0129117Y0165030D01*
X0128930Y0174405D02*
X0130524Y0174405D01*
X0151430Y0158155D02*
X0152680Y0158155D01*
X0160367Y0150468D01*
X0162680Y0150468D01*
X0169295Y0155784D02*
X0169752Y0155784D01*
X0169538Y0158182D02*
X0168029Y0158182D01*
X0162600Y0158263D02*
X0160492Y0158263D01*
X0160333Y0158422D01*
X0162600Y0158422D01*
X0162600Y0158263D01*
X0151430Y0148155D02*
X0150180Y0149405D01*
X0145180Y0149405D01*
X0175180Y0155784D02*
X0175180Y0155784D01*
X0175180Y0158182D02*
X0175180Y0158182D01*
X0175180Y0160581D02*
X0175180Y0160581D01*
X0175180Y0161905D02*
X0186430Y0161905D01*
X0186153Y0160581D02*
X0186706Y0160581D01*
X0186430Y0168155D02*
X0186430Y0169686D01*
X0145625Y0122205D02*
X0140780Y0122205D01*
X0140780Y0119806D02*
X0143253Y0119806D01*
X0142480Y0117408D02*
X0140780Y0117408D01*
X0140780Y0115009D02*
X0142480Y0115009D01*
X0142480Y0112611D02*
X0140780Y0112611D01*
X0140780Y0110212D02*
X0142480Y0110212D01*
X0142480Y0107814D02*
X0140780Y0107814D01*
X0140624Y0105415D02*
X0142480Y0105415D01*
X0116430Y0123780D02*
X0116430Y0133155D01*
X0116430Y0123780D02*
X0114555Y0123780D01*
X0097680Y0144405D02*
X0085180Y0144405D01*
X0073930Y0155655D01*
X0072055Y0155655D01*
X0071430Y0155655D01*
X0071430Y0163155D01*
X0071868Y0163155D01*
X0073118Y0164405D01*
X0071430Y0163155D02*
X0071430Y0173155D01*
X0060180Y0173155D01*
X0081430Y0173155D02*
X0081430Y0164405D01*
X0080992Y0164405D01*
X0080805Y0164405D01*
X0085751Y0165055D02*
X0085751Y0167844D01*
X0085601Y0168404D01*
X0085311Y0168906D01*
X0084902Y0169315D01*
X0084749Y0169403D01*
X0086430Y0171084D01*
X0086430Y0173155D01*
X0081430Y0173155D01*
X0081430Y0173155D01*
X0086430Y0173155D01*
X0086430Y0175226D01*
X0084468Y0177187D01*
X0092363Y0177187D01*
X0092119Y0176708D01*
X0091827Y0175810D01*
X0091680Y0174877D01*
X0091680Y0174405D01*
X0091680Y0173933D01*
X0091827Y0173000D01*
X0092119Y0172102D01*
X0092548Y0171260D01*
X0093103Y0170496D01*
X0093771Y0169829D01*
X0094196Y0169520D01*
X0093927Y0169054D01*
X0093777Y0168494D01*
X0093777Y0165725D01*
X0098850Y0165725D01*
X0098850Y0165566D01*
X0093777Y0165566D01*
X0093777Y0164575D01*
X0093484Y0164454D01*
X0092247Y0163216D01*
X0091908Y0162398D01*
X0091700Y0162607D01*
X0091318Y0162765D01*
X0091160Y0163148D01*
X0089922Y0164385D01*
X0088305Y0165055D01*
X0085751Y0165055D01*
X0085751Y0165378D02*
X0093777Y0165378D01*
X0093777Y0167776D02*
X0085751Y0167776D01*
X0085520Y0170175D02*
X0093425Y0170175D01*
X0091966Y0172573D02*
X0086430Y0172573D01*
X0086430Y0174972D02*
X0091695Y0174972D01*
X0091680Y0174405D02*
X0097679Y0174405D01*
X0091680Y0174405D01*
X0097679Y0174405D02*
X0097679Y0174405D01*
X0097680Y0174405D02*
X0097680Y0170404D01*
X0097680Y0170404D01*
X0097680Y0174405D01*
X0097680Y0174405D01*
X0097680Y0173155D01*
X0081430Y0173155D01*
X0091229Y0162979D02*
X0092148Y0162979D01*
X0097680Y0165645D02*
X0097680Y0174405D01*
X0097680Y0172573D02*
X0097680Y0172573D01*
X0097680Y0165645D02*
X0098930Y0165645D01*
X0098930Y0159405D02*
X0098939Y0159395D01*
X0098939Y0158155D01*
X0097680Y0158155D02*
X0101430Y0158155D01*
X0097680Y0158155D02*
X0095180Y0155655D01*
X0087055Y0155655D01*
X0098930Y0088625D02*
X0098930Y0088625D01*
X0098930Y0086227D02*
X0098930Y0086227D01*
X0098930Y0085655D02*
X0098930Y0085655D01*
X0098930Y0083828D02*
X0098930Y0083828D01*
X0106367Y0072467D02*
X0098617Y0064718D01*
X0106367Y0072467D02*
X0107117Y0072467D01*
X0123305Y0066280D02*
X0131430Y0066280D01*
X0123930Y0066280D02*
X0123930Y0068155D01*
X0123930Y0066280D02*
X0123305Y0066280D01*
X0205805Y0061561D02*
X0209210Y0058155D01*
X0205805Y0061561D02*
X0205805Y0073155D01*
X0228305Y0072530D02*
X0228805Y0073030D01*
X0228805Y0086905D01*
X0242384Y0076067D02*
X0242384Y0069405D01*
X0242384Y0076067D02*
X0243783Y0076067D01*
X0267975Y0069405D02*
X0270180Y0069405D01*
X0275022Y0074248D01*
X0279555Y0074248D01*
X0270805Y0059405D02*
X0267975Y0059405D01*
X0270805Y0059405D02*
X0275647Y0054563D01*
X0279555Y0054563D01*
X0235599Y0055046D02*
X0233260Y0055046D01*
X0234220Y0057445D02*
X0230629Y0057445D01*
X0274085Y0101750D02*
X0269242Y0106593D01*
X0267581Y0106593D01*
X0274085Y0101750D02*
X0279555Y0101750D01*
X0269242Y0116593D02*
X0267581Y0116593D01*
X0269242Y0116593D02*
X0274085Y0121435D01*
X0279555Y0121435D01*
X0279555Y0148313D02*
X0275022Y0148313D01*
X0270180Y0153155D01*
X0267975Y0153155D01*
X0267975Y0163155D02*
X0270180Y0163155D01*
X0275022Y0167998D01*
X0279555Y0167998D01*
X0242055Y0117316D02*
X0242778Y0116593D01*
D39*
X0215805Y0113780D02*
X0215805Y0111905D01*
X0215805Y0113780D02*
X0212680Y0116905D01*
X0199555Y0116905D01*
X0189555Y0126905D01*
X0189555Y0141905D01*
X0200180Y0146905D02*
X0162493Y0146905D01*
X0162680Y0150468D01*
X0151430Y0158155D02*
X0135416Y0158155D01*
X0135416Y0153155D02*
X0130180Y0153155D01*
X0127680Y0150655D01*
X0127680Y0140655D01*
X0133260Y0135075D01*
X0133260Y0135030D01*
X0135416Y0143155D02*
X0147680Y0143155D01*
X0153930Y0136905D01*
X0143930Y0148155D02*
X0145180Y0149405D01*
X0143930Y0148155D02*
X0135416Y0148155D01*
X0127680Y0155655D02*
X0127680Y0165655D01*
X0128930Y0165655D01*
X0129117Y0165655D01*
X0122680Y0165655D02*
X0121243Y0165655D01*
X0122680Y0165655D02*
X0122680Y0155655D01*
X0120180Y0153155D01*
X0114943Y0153155D01*
X0107680Y0153155D01*
X0105180Y0150655D01*
X0105180Y0149405D01*
X0098930Y0143155D02*
X0097680Y0144405D01*
X0098930Y0143155D02*
X0114943Y0143155D01*
X0114943Y0148155D02*
X0120180Y0148155D01*
X0127680Y0155655D01*
X0114943Y0158155D02*
X0101430Y0158155D01*
X0098939Y0158155D01*
X0098930Y0158165D01*
X0135180Y0125655D02*
X0135180Y0124405D01*
X0126863Y0124405D01*
X0126863Y0119405D02*
X0126863Y0114405D01*
X0114555Y0114405D01*
X0114555Y0115655D01*
X0116430Y0109405D02*
X0112055Y0105030D01*
X0110805Y0105030D01*
X0116430Y0109405D02*
X0126863Y0109405D01*
X0140805Y0116905D02*
X0140805Y0096905D01*
X0141430Y0096905D01*
X0147680Y0097241D02*
X0150723Y0094198D01*
X0147680Y0097241D02*
X0147680Y0109405D01*
X0155997Y0109405D01*
X0155997Y0114405D02*
X0159555Y0114405D01*
X0162055Y0116905D01*
X0180805Y0116905D01*
X0185870Y0111840D01*
X0189489Y0108221D02*
X0194637Y0103073D01*
X0194637Y0099613D01*
X0155997Y0119405D02*
X0150180Y0119405D01*
X0147680Y0116905D01*
X0147680Y0109405D01*
X0140805Y0116905D02*
X0148305Y0124405D01*
X0155997Y0124405D01*
X0200180Y0146905D02*
X0205180Y0151905D01*
X0212055Y0146593D02*
X0207367Y0141905D01*
X0205180Y0141905D01*
X0212055Y0146593D02*
X0220482Y0146593D01*
X0223930Y0150040D01*
X0227137Y0060448D02*
X0229137Y0060448D01*
X0233930Y0055655D01*
X0233930Y0049405D01*
X0230180Y0045655D01*
X0202055Y0045655D01*
X0200180Y0047530D01*
X0143130Y0046955D02*
X0131430Y0046955D01*
X0131430Y0047530D01*
X0138640Y0050655D02*
X0133785Y0055510D01*
X0138640Y0050655D02*
X0143130Y0050655D01*
X0143130Y0054355D02*
X0143130Y0057705D01*
X0140035Y0060800D01*
X0139074Y0060800D01*
X0078930Y0048155D02*
X0073260Y0048155D01*
X0064599Y0048155D02*
X0058930Y0048155D01*
M02*
