%
M48
M72
T01C0.0276
T02C0.0320
T03C0.0400
T04C0.0433
T05C0.0440
T06C0.0470
T07C0.1260
%
T01
X7643Y7378
T02
X5893Y4816
X7893Y4816
X8018Y5441
X8018Y6441
X6793Y6503
X5993Y6503
X9330Y6628
X9893Y8566
X10893Y8566
X12518Y8503
X13518Y8503
X12205Y7566
X12330Y6628
X13143Y6628
X15143Y6628
X15205Y7566
X16393Y8378
X17393Y7941
X17393Y6941
X17393Y6128
X16393Y6128
X16143Y4753
X17018Y4753
X20018Y4753
X22658Y5149
X22830Y7253
X21580Y7191
X20580Y7316
X20580Y8316
X20518Y9191
X20518Y10191
X20518Y11191
X21580Y11191
X22830Y10253
X24378Y9962
X24378Y7607
X20518Y12191
X21580Y12441
X22658Y12419
X24205Y13066
X24205Y14066
X22518Y13816
X20518Y14191
X20518Y15191
X20518Y16191
X21580Y15441
X22518Y16816
X17518Y16191
X17518Y15191
X17518Y14191
X17518Y13191
X17518Y12191
X16455Y12191
X16455Y11191
X16393Y10378
X17518Y10191
X17518Y9191
X17518Y11191
X20518Y13191
X16268Y13816
X15393Y13566
X14393Y13566
X13326Y13503
X12460Y13003
X11455Y11566
X10455Y11566
X11080Y10503
X12143Y9691
X14143Y9691
X9080Y10503
X15143Y14816
X14518Y14941
X15143Y15816
X14018Y16503
X15268Y17441
X16268Y16816
X12268Y17441
X11018Y16503
X10518Y14941
X8143Y17316
X7143Y17316
X13143Y4753
T03
X11643Y5066
X10643Y5066
X9643Y5066
X9455Y12378
X10455Y13378
X11455Y12378
T04
X9768Y14441
X6018Y14316
X6018Y17316
X9768Y17441
T05
X8705Y15566
X7205Y15566
X18768Y7691
X18768Y5941
T06
X27955Y5456
X27955Y7425
X27955Y10175
X27955Y12144
X27955Y14831
X27955Y16800
X6510Y12847
X6510Y10878
X6510Y8910
T07
X3893Y6066
X3893Y16066
X30893Y13503
X30893Y8816
M30
